<?xml version="1.0" encoding="UTF-8"?> <svg xmlns="http://www.w3.org/2000/svg" xmlns:xlink="http://www.w3.org/1999/xlink" version="1.1" id="Livello_1" x="0px" y="0px" viewBox="0 0 608.5 70.9" xml:space="preserve"> <g> <g> <path fill="#FFFFFF" d="M236.5,35.9c0.3,14,8.8,24.7,23.3,24.7c9.8,0,16.4-3.5,22.3-9l6.7,6.6c-6.1,6.3-15.4,12-29.4,12 c-20.9,0-33.6-15.3-33.6-35.5c0-18,12.5-33.9,32.8-33.9c19.6,0,30.3,15,31.4,32.8c0,1.1-0.4,2.2-2.2,2.2H236.5z M258.2,10.4 c-12.2,0-19.4,7.5-21.2,17.2h41.4C276.8,18.8,269.9,10.4,258.2,10.4"></path> <path fill="#FFFFFF" d="M10.6,35.9c0.3,14,8.8,24.7,23.3,24.7c9.8,0,16.4-3.5,22.3-9l6.7,6.6c-6.1,6.3-15.4,12-29.4,12 C12.7,70.3,0,55,0,34.8c0-18,12.5-33.9,32.8-33.9c19.6,0,30.3,15,31.4,32.8c0,1.1-0.4,2.2-2.2,2.2H10.6z M32.3,10.4 c-12.2,0-19.4,7.5-21.2,17.2h41.4C50.9,18.8,44,10.4,32.3,10.4"></path> <path fill="#FFFFFF" d="M143.4,69.7c-0.8-1.8-29.3-66.9-29.3-66.9h11.4l19.4,47.3l19.7-47.3h10.9c0,0-28.5,65.3-29.2,66.9 C145.7,71.3,144.1,71.2,143.4,69.7"></path> <path fill="#FFFFFF" d="M470,70.3c-19.3,0-34-14.1-34-34.8c0-19.3,14.1-34.5,33.9-34.5c19.7,0,34.4,14.9,34.4,34.2 C504.2,55.2,489.5,70.3,470,70.3 M469.9,10.7c-13.6,0-23.1,10.6-23.1,24.7c0,14.8,9.5,25.2,23.1,25.2c14.6,0,23.6-10.8,23.6-25.2 C493.5,20.7,483.7,10.7,469.9,10.7"></path> <path fill="#FFFFFF" d="M581.2,0c-14.8,0-26.9,11.9-27.3,26.6v0.7v41.1h10.3V48.7V28.8v-2.2c0.4-9.1,7.8-16.4,17-16.4 s16.6,7.3,17,16.4v2.2v19.8v19.7h10.3V27.3v-0.7C608.1,11.9,596,0,581.2,0"></path> <path fill="#FFFFFF" d="M371.6,0c-14.8,0-26.9,11.9-27.3,26.6v0.7v41.1h10.3V48.7V28.8v-2.2c0.4-9.1,7.8-16.4,17-16.4 c4.7,0,9,1.9,12.1,5L391,8C386,3.1,379.2,0,371.6,0"></path> </g> </g> </svg> 