<svg version="1.1" id="Layer_1" xmlns="http://www.w3.org/2000/svg" x="0" y="0" viewBox="0 0 343 35.5" xml:space="preserve">
  <g>
    <g fill="#FEFEFE">
      <path d="M0.8,34.8C0.3,34.8,0,34.5,0,34V5.2c0-0.5,0.3-0.8,0.8-0.8h15.5c0.6,0,0.8,0.3,0.8,0.8 c0,0.2-0.1,0.4-0.2,0.6S16.5,6,16.3,6H1.6v28c0,0.2-0.1,0.4-0.2,0.6C1.2,34.7,1,34.8,0.8,34.8z"/>
      <path d="M5.1,1.7c-0.5,0-0.8-0.3-0.8-0.8C4.4,0.3,4.6,0,5.1,0H19c0.2,0,0.4,0.1,0.6,0.2s0.2,0.3,0.2,0.6 s-0.1,0.5-0.2,0.6c-0.2,0.1-0.4,0.2-0.6,0.2L5.1,1.7L5.1,1.7z"/>
      <path d="M4.5,34V19.6c0-0.3,0.1-0.5,0.2-0.6c0.2-0.2,0.4-0.2,0.6-0.2h11.4c0.2,0,0.4,0.1,0.6,0.2s0.2,0.4,0.2,0.6 s-0.1,0.4-0.2,0.6c-0.2,0.1-0.4,0.2-0.6,0.2H6.1V34c0,0.2-0.1,0.4-0.2,0.6c-0.2,0.1-0.4,0.2-0.6,0.2C4.7,34.8,4.5,34.5,4.5,34z"/>
      <path d="M19.4,4.4c0.2,0.1,0.4,0.2,0.5,0.4C20,5,20,5.3,19.9,5.5c-0.1,0.4-0.4,0.6-0.8,0.6 c-0.4-0.1-0.6-0.3-0.7-0.5s-0.2-0.4-0.1-0.7l0,0c0.2-0.4,0.4-0.6,0.8-0.6C19.2,4.4,19.3,4.4,19.4,4.4z"/>
      <path d="M23.9,17.3c0-1.6,0.2-3.1,0.6-4.7c0.4-1.5,1-3,1.8-4.4s1.7-2.6,2.8-3.7c1.1-1.1,2.4-2,3.8-2.8 c0.1-0.1,0.2-0.1,0.4-0.1c0.3,0,0.5,0.1,0.7,0.4c0.1,0.2,0.2,0.5,0.1,0.7c-0.1,0.2-0.2,0.4-0.4,0.5c-1.3,0.7-2.4,1.5-3.5,2.5 c-1,1-1.9,2.1-2.6,3.4c-0.7,1.2-1.2,2.6-1.6,4s-0.5,2.8-0.5,4.3c0,2,0.4,4,1.1,5.9s1.7,3.6,3,5c1.3,1.5,2.8,2.6,4.6,3.5 s3.7,1.3,5.8,1.3s4-0.4,5.8-1.3c1.7-0.9,3.3-2,4.5-3.5c1.3-1.5,2.3-3.1,3-5s1.1-3.8,1.1-5.8c0-1.9-0.3-3.8-1-5.7 c-0.7-1.8-1.6-3.5-2.8-4.9S48,4.3,46.3,3.4s-3.5-1.5-5.5-1.6v3.5c0,0.5-0.3,0.8-0.8,0.8c-1.5,0-2.9,0.3-4.2,0.9s-2.3,1.5-3.2,2.5 c-0.9,1.1-1.6,2.3-2,3.6c-0.5,1.4-0.7,2.8-0.7,4.2s0.2,2.8,0.7,4.2c0.5,1.4,1.2,2.6,2.1,3.6c0.9,1.1,2,1.9,3.2,2.5 s2.6,0.9,4.1,0.9s2.9-0.3,4.2-0.9s2.3-1.5,3.2-2.5s1.6-2.2,2.1-3.6s0.7-2.8,0.7-4.2c0-2.4-0.6-4.5-1.7-6.4 c-1.1-1.9-2.7-3.2-4.6-4.1c-0.2-0.1-0.3-0.2-0.4-0.4c-0.1-0.2-0.1-0.4,0-0.6c0.1-0.3,0.3-0.5,0.7-0.5c0.1,0,0.2,0,0.3,0 c1.1,0.5,2.1,1.1,3,2C48.3,8,49,8.9,49.7,10c0.6,1,1.1,2.2,1.5,3.4c0.3,1.2,0.5,2.5,0.5,3.9c0,1.7-0.3,3.3-0.9,4.8 c-0.6,1.6-1.4,2.9-2.4,4.1s-2.3,2.1-3.7,2.8c-1.5,0.7-3.1,1.1-4.8,1.1s-3.3-0.4-4.8-1.1c-1.4-0.7-2.7-1.7-3.7-2.9 c-1-1.2-1.8-2.6-2.4-4.1s-0.8-3.1-0.8-4.8c0-1.6,0.3-3.1,0.8-4.6s1.2-2.8,2.2-4c1-1.2,2.1-2.1,3.4-2.9s2.8-1.2,4.5-1.3V0.8 c0-0.5,0.3-0.8,0.8-0.8c2.3,0,4.5,0.5,6.4,1.5s3.6,2.3,5,3.9s2.5,3.4,3.3,5.5s1.2,4.2,1.2,6.5c0,2.2-0.4,4.4-1.2,6.5 s-1.9,3.9-3.3,5.5c-1.4,1.6-3.1,2.9-5.1,3.8c-2,1-4.1,1.4-6.4,1.4c-2.3,0-4.5-0.5-6.5-1.4c-2-1-3.7-2.2-5.1-3.8 c-1.4-1.6-2.5-3.4-3.3-5.5C24.3,21.7,23.9,19.6,23.9,17.3z"/>
      <path d="M63.9,5.9v28c0,0.6-0.3,0.8-0.8,0.8c-0.6,0-0.8-0.3-0.8-0.8V5.1c0-0.2,0.1-0.4,0.2-0.6 c0.1-0.2,0.4-0.2,0.6-0.2H73c1.2,0,2.3,0.1,3.3,0.3c1,0.2,1.9,0.6,2.6,1.1s1.3,1.2,1.7,2.1c0.4,0.9,0.6,2,0.6,3.3 c0,4.6-2.6,7-7.8,7h-1.5c-0.2,0-0.4-0.1-0.6-0.2c-0.2-0.2-0.2-0.4-0.2-0.6s0.1-0.4,0.2-0.6c0.2-0.1,0.4-0.2,0.6-0.2h1.5 c1.9,0,3.4-0.4,4.5-1.1c1.1-0.8,1.7-2.2,1.7-4.2c0-1.1-0.2-1.9-0.5-2.6S78.3,7.4,77.8,7c-0.6-0.4-1.2-0.6-2.1-0.8 C74.8,6,73.9,5.9,73,5.9H63.9z"/>
      <path d="M77.5,31.1c0.1,0.2,0.2,0.4,0.1,0.6c0,0.2-0.2,0.4-0.3,0.5c-0.1,0.1-0.3,0.1-0.5,0.1 c-0.3,0-0.5-0.1-0.6-0.4l-9.6-14.2c-0.3-0.5-0.2-0.8,0.2-1.1c0.1-0.1,0.2-0.1,0.4-0.1c0.2,0,0.5,0.1,0.7,0.3L77.5,31.1z"/>
      <path d="M76,21.7l8,11.7c0.3,0.5,0.2,0.8-0.2,1.1c-0.1,0.1-0.3,0.1-0.4,0.1c-0.3,0-0.5-0.1-0.7-0.3l-8.8-13 c-0.2-0.2-0.2-0.5,0-0.8s0.4-0.4,0.7-0.4c1.4,0,2.7-0.2,3.8-0.6c1.2-0.4,2.1-1,3-1.8c0.8-0.8,1.5-1.7,1.9-2.9 c0.4-1.1,0.7-2.4,0.7-3.8c0-3.2-0.8-5.4-2.4-6.9C80,2.7,77.7,2,74.6,2h-7c-0.5,0-0.8-0.3-0.8-0.8s0.3-0.8,0.8-0.8h7 c3.5,0,6.2,0.8,8.1,2.5s2.9,4.4,2.9,8c0,3-0.8,5.5-2.5,7.3C81.3,20.2,78.9,21.3,76,21.7z"/>
      <path d="M78.6,33c0.3,0.1,0.4,0.2,0.5,0.4s0.1,0.5,0,0.7l0,0c-0.1,0.4-0.4,0.6-0.8,0.6c-0.4-0.1-0.6-0.3-0.7-0.5 s-0.2-0.4-0.1-0.7l0,0c0.2-0.4,0.4-0.6,0.8-0.6C78.5,32.9,78.6,33,78.6,33z"/>
      <path d="M94.2,16.2c-0.2,0-0.4-0.1-0.6-0.2c-0.2-0.2-0.2-0.4-0.2-0.6V0.9c0-0.2,0.1-0.4,0.2-0.6 c0.2-0.2,0.4-0.2,0.6-0.2s0.4,0.1,0.6,0.2C94.9,0.5,95,0.7,95,0.9v13.7h12.7c0.2,0,0.4,0.1,0.6,0.2c0.2,0.1,0.2,0.3,0.2,0.6 c0,0.2-0.1,0.4-0.2,0.6c-0.2,0.2-0.4,0.2-0.6,0.2H94.2z"/>
      <path d="M94.2,34.9c-0.2,0-0.4-0.1-0.6-0.2c-0.2-0.2-0.2-0.4-0.2-0.6V19.7c0-0.2,0.1-0.4,0.2-0.6 c0.2-0.2,0.4-0.2,0.6-0.2h13.5c0.2,0,0.4,0.1,0.6,0.2c0.2,0.2,0.2,0.4,0.2,0.6s-0.1,0.4-0.2,0.6c-0.2,0.1-0.4,0.2-0.6,0.2H95v12.8 h17.2c0.5,0,0.8,0.3,0.8,0.8c0,0.2-0.1,0.4-0.2,0.6c-0.1,0.2-0.3,0.2-0.6,0.2H94.2z"/>
      <path d="M98.2,1.9c-0.2,0-0.4-0.1-0.6-0.2c-0.1-0.2-0.2-0.4-0.2-0.6c0-0.5,0.3-0.8,0.8-0.8h13.9 c0.2,0,0.4,0.1,0.6,0.2s0.2,0.3,0.2,0.6c0,0.2-0.1,0.4-0.2,0.6c-0.2,0.2-0.4,0.2-0.6,0.2H98.2z"/>
      <path d="M112,4.6c0.2,0,0.4,0.1,0.6,0.2c0.2,0.2,0.2,0.4,0.2,0.6s-0.1,0.4-0.2,0.6c-0.2,0.1-0.4,0.2-0.6,0.2H99.2 v5.5c0,0.2-0.1,0.4-0.2,0.6c-0.2,0.2-0.4,0.2-0.6,0.2s-0.4-0.1-0.6-0.2c-0.1-0.2-0.2-0.4-0.2-0.6V5.4c0-0.2,0.1-0.4,0.2-0.6 s0.3-0.2,0.6-0.2C98.4,4.6,112,4.6,112,4.6z"/>
      <path d="M112.2,29c0.2,0.1,0.4,0.2,0.5,0.4c0.1,0.2,0.1,0.4,0,0.7l0,0c-0.2,0.4-0.4,0.6-0.8,0.6 c-0.4-0.1-0.6-0.3-0.7-0.5s-0.2-0.5-0.1-0.7c0.2-0.4,0.4-0.6,0.8-0.6C112,29,112.1,29,112.2,29z"/>
      <path d="M122.5,16.1c-1.8-1.6-2.6-3.6-2.5-5.9c0-0.1,0-0.2,0-0.5s0.1-0.6,0.2-1s0.3-0.8,0.5-1.2 c0.2-0.4,0.6-0.8,1-1.2c1.1-1.1,2.3-1.7,3.7-1.9c1.4-0.2,2.9-0.3,4.3-0.3c0.5,0,1.2,0.1,2.2,0.3c1,0.1,2,0.5,3,1.1 c2.5,1.4,3.7,3.5,3.6,6.3c-0.1,0.5-0.3,0.7-0.8,0.7c-0.3,0-0.5-0.1-0.6-0.2c-0.1-0.2-0.2-0.4-0.2-0.6c0.1-1.2-0.2-2.2-0.7-3 c-0.3-0.5-0.7-1-1.2-1.3s-1-0.6-1.6-0.9c-0.6-0.2-1.2-0.4-1.8-0.5s-1.2-0.2-1.8-0.2c-1.2,0-2.4,0.1-3.6,0.2 c-1.2,0.2-2.3,0.7-3.2,1.5c-0.6,0.6-1,1.2-1.1,1.8c-0.1,0.6-0.1,0.9-0.1,1c0,1,0.1,1.8,0.4,2.5s0.8,1.4,1.4,2s1.4,1.1,2.3,1.7 c0.9,0.5,1.9,1,2.9,1.5l0.7,0.3c1.3,0.6,2.5,1.1,3.5,1.6c1.1,0.5,2,1,2.7,1.6c0.9,0.6,1.5,1.2,1.8,1.9c0.5,0.8,0.6,1.6,0.3,2.5 c-0.1,0.4-0.4,0.6-0.8,0.6c-0.3-0.1-0.6-0.2-0.7-0.4c-0.1-0.2-0.2-0.4-0.1-0.6c0.3-1-0.3-1.9-1.6-2.7c-1.4-0.8-3.3-1.8-5.9-3 l-0.7-0.3c-0.9-0.4-1.9-0.9-2.9-1.4C124.1,17.5,123.2,16.9,122.5,16.1z"/>
      <path d="M125.7,23.8c-0.2,0.4-0.4,0.6-0.8,0.6c-0.4-0.1-0.7-0.3-0.8-0.5c-0.1-0.2-0.1-0.5,0-0.7l0,0 c0.1-0.4,0.4-0.6,0.8-0.6c0.1,0,0.1,0,0.1,0h0.1c0.2,0.1,0.4,0.2,0.5,0.4C125.7,23.3,125.7,23.6,125.7,23.8L125.7,23.8z"/>
      <path d="M141.1,28.4c-1.2,1.2-2.4,2-3.9,2.3c-1.4,0.3-2.9,0.4-4.5,0.4c-0.8,0-1.6-0.1-2.4-0.3 c-0.8-0.2-1.6-0.5-2.4-0.8c-0.7-0.4-1.4-0.8-2-1.4s-1.1-1.2-1.4-2c-0.1-0.2-0.1-0.4,0-0.6s0.2-0.4,0.4-0.5c0.1,0,0.1,0,0.1,0h0.1 c0.4,0,0.6,0.2,0.8,0.5c0.3,0.7,0.6,1.2,1.1,1.6s1.1,0.8,1.7,1.1c0.6,0.3,1.3,0.5,2,0.6s1.3,0.2,2,0.3c0.8,0,1.7,0,2.6-0.1 s1.7-0.3,2.5-0.6c0.8-0.3,1.5-0.8,2.1-1.4s1-1.3,1.2-2.3c0-0.8,0-1.5-0.1-2s-0.3-1-0.7-1.4c-0.5-0.6-1.3-1.2-2.4-1.8 c-1.1-0.6-2.6-1.4-4.5-2.3c-1.4-0.6-2.7-1.2-3.8-1.8c-1.1-0.6-2-1.1-2.8-1.7c-1.9-1.5-2.8-3-2.5-4.6c0.1-0.3,0.2-0.5,0.4-0.5 c0.2-0.1,0.4-0.1,0.6-0.1s0.4,0.1,0.5,0.3s0.2,0.4,0.1,0.6c-0.1,0.6,0,1.1,0.4,1.7s1,1.1,1.7,1.6c0.8,0.5,1.7,1,2.7,1.5 s2.1,1,3.2,1.5c2.1,1,3.7,1.8,4.8,2.5s2,1.4,2.5,2c0.7,0.7,1,1.5,1.2,2.2c0.1,0.7,0.1,1.5,0.1,2.4c0,0.1-0.1,0.4-0.3,1.1 C142.3,27,141.8,27.7,141.1,28.4z"/>
      <path d="M140.1,4.1c1.9,2.1,2.8,4.8,2.7,7.9c-0.1,0.5-0.3,0.8-0.8,0.8c-0.6-0.1-0.9-0.4-0.8-0.9 c0.1-1.3-0.1-2.5-0.5-3.7s-1-2.2-1.8-3c-0.9-1-1.9-1.7-3.2-2.3c-1.3-0.5-2.8-0.9-4.4-1c-0.2,0-0.4-0.1-0.6-0.2 c-0.2-0.2-0.2-0.4-0.2-0.6s0.1-0.4,0.2-0.6c0.2-0.1,0.4-0.2,0.6-0.2C135.1,0.5,138,1.7,140.1,4.1z"/>
      <path d="M159.9,1.1v15.6h3.7c0.2,0,0.4,0.1,0.6,0.2c0.1,0.2,0.2,0.4,0.2,0.6v12.6c0,0.6-0.3,0.8-0.8,0.8 c-0.2,0-0.4-0.1-0.6-0.2c-0.2-0.1-0.2-0.4-0.2-0.6V18.4h-3.7c-0.2,0-0.4-0.1-0.6-0.2c-0.2-0.1-0.2-0.3-0.2-0.6V1.9h-9 c-0.6,0-0.8-0.3-0.8-0.8c0-0.6,0.3-0.8,0.8-0.8h9.8C159.6,0.3,159.9,0.6,159.9,1.1z"/>
      <path d="M155.3,4.6c0.2,0,0.4,0.1,0.6,0.2c0.1,0.2,0.2,0.4,0.2,0.6c0,0.5-0.3,0.8-0.8,0.8h-6 c-0.6,0-0.8-0.3-0.8-0.8c0-0.2,0.1-0.4,0.2-0.6c0.1-0.2,0.4-0.2,0.6-0.2H155.3z"/>
      <path d="M159.9,34c0,0.5-0.3,0.8-0.8,0.8c-0.2,0-0.4-0.1-0.6-0.2c-0.2-0.1-0.2-0.3-0.2-0.6V22.1 c0-0.3,0.1-0.5,0.2-0.6c0.2-0.1,0.4-0.2,0.6-0.2c0.5,0,0.8,0.3,0.8,0.8V34z"/>
      <path d="M163.6,0.3h6.4c0.5,0,0.8,0.3,0.8,0.8s-0.3,0.8-0.8,0.8h-6.4c-0.2,0-0.4-0.1-0.6-0.2 c-0.2-0.1-0.2-0.3-0.2-0.6s0.1-0.5,0.2-0.6C163.1,0.4,163.3,0.3,163.6,0.3z"/>
      <path d="M173,0.2c0.3,0.1,0.4,0.2,0.5,0.4s0.1,0.5,0,0.7l0,0c-0.1,0.4-0.4,0.6-0.8,0.6c-0.4-0.1-0.6-0.3-0.7-0.5 c-0.1-0.2-0.2-0.4-0.1-0.7l0,0c0.1-0.4,0.4-0.6,0.8-0.6C172.9,0.2,173,0.2,173,0.2z"/>
      <path d="M188.5,34.8c-0.5,0-0.8-0.3-0.8-0.8V5.2c0-0.5,0.3-0.8,0.8-0.8H204c0.6,0,0.8,0.3,0.8,0.8 c0,0.2-0.1,0.4-0.2,0.6C204.5,6,204.2,6,204,6h-14.7v28c0,0.2-0.1,0.4-0.2,0.6C188.9,34.7,188.7,34.8,188.5,34.8z"/>
      <path d="M192.9,1.7c-0.5,0-0.8-0.3-0.8-0.8s0.3-0.8,0.8-0.8h13.9c0.2,0,0.4,0.1,0.6,0.2c0.2,0.1,0.2,0.3,0.2,0.6 s-0.1,0.5-0.2,0.6c-0.2,0.1-0.4,0.2-0.6,0.2H192.9z"/>
      <path d="M192.2,34V19.6c0-0.3,0.1-0.5,0.2-0.6c0.2-0.2,0.4-0.2,0.6-0.2h11.4c0.2,0,0.4,0.1,0.6,0.2 c0.2,0.1,0.2,0.4,0.2,0.6s-0.1,0.4-0.2,0.6c-0.2,0.1-0.4,0.2-0.6,0.2h-10.6V34c0,0.2-0.1,0.4-0.2,0.6c-0.2,0.1-0.4,0.2-0.6,0.2 C192.4,34.8,192.2,34.5,192.2,34z"/>
      <path d="M207.1,4.4c0.2,0.1,0.4,0.2,0.5,0.4c0.1,0.2,0.1,0.5,0,0.7c-0.1,0.4-0.4,0.6-0.8,0.6 c-0.4-0.1-0.6-0.3-0.7-0.5c-0.1-0.2-0.2-0.4-0.1-0.7l0,0c0.2-0.4,0.4-0.6,0.8-0.6C206.9,4.4,207,4.4,207.1,4.4z"/>
      <path d="M211.6,17.3c0-1.6,0.2-3.1,0.6-4.7c0.4-1.5,1-3,1.8-4.4s1.7-2.6,2.8-3.7s2.4-2,3.8-2.8 c0.1-0.1,0.2-0.1,0.4-0.1c0.3,0,0.5,0.1,0.7,0.4c0.1,0.2,0.2,0.5,0.1,0.7c-0.1,0.2-0.2,0.4-0.4,0.5c-1.3,0.7-2.4,1.5-3.5,2.5 c-1,1-1.9,2.1-2.6,3.4c-0.7,1.2-1.2,2.6-1.6,4c-0.4,1.4-0.5,2.8-0.5,4.3c0,2,0.4,4,1.1,5.9c0.7,1.9,1.7,3.6,3,5 c1.3,1.5,2.8,2.6,4.6,3.5s3.7,1.3,5.8,1.3s4-0.4,5.8-1.3c1.7-0.9,3.3-2,4.5-3.5c1.3-1.5,2.3-3.1,3-5s1.1-3.8,1.1-5.8 c0-1.9-0.3-3.8-1-5.7c-0.7-1.8-1.6-3.5-2.8-4.9s-2.6-2.6-4.3-3.5s-3.5-1.5-5.5-1.6v3.5c0,0.5-0.3,0.8-0.8,0.8 c-1.5,0-2.9,0.3-4.2,0.9s-2.3,1.5-3.2,2.5c-0.9,1.1-1.6,2.3-2,3.6c-0.5,1.4-0.7,2.8-0.7,4.2s0.2,2.8,0.7,4.2 c0.5,1.4,1.2,2.6,2.1,3.6c0.9,1.1,2,1.9,3.2,2.5s2.6,0.9,4.1,0.9s2.9-0.3,4.2-0.9s2.3-1.5,3.2-2.5s1.6-2.2,2.1-3.6 s0.7-2.8,0.7-4.2c0-2.4-0.6-4.5-1.7-6.4c-1.1-1.9-2.7-3.2-4.6-4.1c-0.2-0.1-0.3-0.2-0.4-0.4c-0.1-0.2-0.1-0.4,0-0.6 c0.1-0.3,0.3-0.5,0.7-0.5c0.1,0,0.2,0,0.3,0c1.1,0.5,2.1,1.1,3,2c0.9,0.8,1.7,1.7,2.3,2.8c0.6,1,1.1,2.2,1.5,3.4 c0.3,1.2,0.5,2.5,0.5,3.9c0,1.7-0.3,3.3-0.9,4.8c-0.6,1.6-1.4,2.9-2.4,4.1s-2.3,2.1-3.7,2.8c-1.5,0.7-3.1,1.1-4.8,1.1 s-3.3-0.4-4.8-1.1c-1.4-0.7-2.7-1.7-3.7-2.9c-1-1.2-1.8-2.6-2.4-4.1c-0.6-1.5-0.8-3.1-0.8-4.8c0-1.6,0.3-3.1,0.8-4.6 s1.2-2.8,2.2-4s2.1-2.1,3.4-2.9c1.3-0.8,2.8-1.2,4.5-1.3V0.8c0-0.5,0.3-0.8,0.8-0.8c2.3,0,4.5,0.5,6.4,1.5s3.6,2.3,5,3.9 s2.5,3.4,3.3,5.5s1.2,4.2,1.2,6.5c0,2.2-0.4,4.4-1.2,6.5s-1.9,3.9-3.3,5.5c-1.4,1.6-3.1,2.9-5.1,3.8c-2,1-4.1,1.4-6.4,1.4 c-2.3,0-4.5-0.5-6.5-1.4c-2-1-3.7-2.2-5.1-3.8c-1.4-1.6-2.5-3.4-3.3-5.5C212,21.7,211.6,19.6,211.6,17.3z"/>
      <path d="M248.2,18.1V1.5c0-0.2,0.1-0.4,0.2-0.6c0.1-0.2,0.4-0.2,0.6-0.2c0.2,0,0.4,0.1,0.6,0.2 c0.1,0.2,0.2,0.4,0.2,0.6v16.6c0,2.1,0.3,4,0.9,5.9c0.6,1.8,1.4,3.4,2.5,4.8c1,1.4,2.3,2.5,3.7,3.4s2.9,1.4,4.6,1.5v-3.5 c0-0.2,0.1-0.4,0.2-0.6s0.3-0.2,0.6-0.2c1.5,0,2.7-0.4,3.7-1.1s1.9-1.6,2.5-2.7s1.1-2.3,1.4-3.6c0.3-1.3,0.4-2.6,0.4-3.8V4.4 c0-0.3,0.1-0.5,0.2-0.6c0.2-0.1,0.4-0.2,0.6-0.2c0.5,0,0.8,0.3,0.8,0.8v13.8c0,1.4-0.2,2.8-0.5,4.3s-0.9,2.8-1.6,4 s-1.6,2.2-2.8,3.1s-2.5,1.3-4,1.5v3.6c0,0.2-0.1,0.4-0.2,0.6c-0.2,0.2-0.4,0.2-0.6,0.2c-2.2,0-4.2-0.5-6-1.6 c-1.7-1.1-3.2-2.4-4.4-4.1s-2.1-3.5-2.7-5.6C248.6,22.1,248.2,20.1,248.2,18.1z"/>
      <path d="M265.9,33.5c1.5-0.6,2.8-1.4,3.9-2.4c1.1-1.1,2-2.3,2.8-3.7c0.7-1.4,1.3-2.8,1.7-4.4 c0.4-1.5,0.6-3.1,0.6-4.6V1.6c0-0.2,0.1-0.4,0.2-0.6s0.3-0.2,0.6-0.2c0.2,0,0.4,0.1,0.6,0.2c0.2,0.2,0.2,0.4,0.2,0.6v16.9 c0,1.6-0.2,3.3-0.6,5s-1.1,3.3-1.9,4.8s-1.9,2.9-3.1,4.1c-1.2,1.2-2.7,2.1-4.3,2.6c-0.6,0.1-0.9,0-1-0.4c-0.1-0.2-0.1-0.4,0-0.6 C265.5,33.7,265.7,33.6,265.9,33.5z"/>
      <path d="M271.5,0.7c0.2,0.1,0.4,0.3,0.5,0.5s0.1,0.4,0,0.7l0,0c-0.2,0.4-0.4,0.6-0.8,0.6c-0.4-0.1-0.6-0.3-0.7-0.5 s-0.2-0.5-0.1-0.7l0,0c0.2-0.4,0.4-0.6,0.8-0.6c0.1,0,0.1,0,0.1,0C271.4,0.7,271.4,0.7,271.5,0.7z"/>
      <path d="M283.6,34.9c-0.5,0-0.8-0.3-0.8-0.8v-33c0-0.4,0.2-0.7,0.6-0.8h0.1h0.1c0.3,0,0.5,0.1,0.7,0.4l20.4,33 c0.3,0.5,0.2,0.8-0.2,1.1c-0.2,0.1-0.3,0.1-0.4,0.1c-0.3,0-0.5-0.1-0.7-0.4L284.4,4v30.2c0,0.2-0.1,0.4-0.2,0.6 C284,34.8,283.8,34.9,283.6,34.9z"/>
      <path d="M290,3.9c-0.3-0.5-0.2-0.8,0.2-1.1c0.1-0.1,0.2-0.1,0.4-0.1c0.3,0,0.6,0.1,0.7,0.3l11.8,18.7V1.1 c0-0.2,0.1-0.4,0.2-0.6s0.3-0.2,0.6-0.2c0.2,0,0.4,0.1,0.6,0.2c0.2,0.2,0.2,0.4,0.2,0.6v23.5c0,0.4-0.2,0.7-0.6,0.8 c-0.5,0-0.8-0.1-0.9-0.3L290,3.9z"/>
      <path d="M308,1.9c-0.3-0.1-0.4-0.2-0.5-0.4s-0.1-0.5,0-0.7l0,0c0.1-0.4,0.4-0.6,0.8-0.6c0.1,0,0.1,0,0.1,0h0.1 c0.6,0.2,0.8,0.6,0.6,1.1l0,0C309,1.8,308.8,2,308.3,2L308,1.9z"/>
      <path d="M308.3,3c0.3,0,0.5,0.1,0.6,0.2c0.1,0.2,0.2,0.4,0.2,0.6v30.3c0,0.5-0.3,0.8-0.8,0.8s-0.8-0.3-0.8-0.8V3.9 c0-0.2,0.1-0.4,0.2-0.6C307.9,3.1,308.1,3,308.3,3z"/>
      <path d="M318.9,34.8c-0.2,0-0.4-0.1-0.6-0.2c-0.1-0.2-0.2-0.4-0.2-0.6V5.4c0-0.2,0.1-0.4,0.2-0.6s0.3-0.2,0.6-0.2 h8.6c2.3,0,4.3,0.6,6.1,1.9c1.8,1.3,3.1,2.9,4,4.9c0.8,1.8,1.1,3.8,1.1,6.1c0,1.4-0.2,2.8-0.5,4.1c-0.3,1.3-0.8,2.5-1.5,3.6 s-1.5,2.1-2.5,2.9s-2.2,1.5-3.7,2c-0.6,0-0.9-0.2-1-0.5c-0.1-0.2,0-0.4,0-0.6c0.1-0.2,0.3-0.3,0.5-0.4c0.5-0.2,1.2-0.5,2-0.9 s1.6-1,2.3-1.9c0.7-0.8,1.4-1.9,1.9-3.3c0.5-1.3,0.8-3,0.8-5c0-1.7-0.3-3.3-0.8-4.8s-1.4-2.8-2.7-4c-0.9-0.8-1.8-1.3-2.9-1.8 c-1.1-0.4-2.2-0.6-3.2-0.6h-7.7V34c0,0.2-0.1,0.4-0.2,0.6C319.3,34.7,319.1,34.8,318.9,34.8z"/>
      <path d="M323.2,2c-0.2,0-0.4-0.1-0.6-0.2s-0.2-0.3-0.2-0.6c0-0.2,0.1-0.4,0.2-0.6c0.2-0.2,0.4-0.2,0.6-0.2h5.3 c1.4,0,2.8,0.2,4.1,0.7c1.3,0.5,2.5,1.1,3.7,1.9c1.1,0.8,2.1,1.7,3,2.8s1.6,2.3,2.1,3.6c1.1,2.5,1.6,5.3,1.6,8.4 c0,2.3-0.3,4.5-0.9,6.6s-1.5,3.9-2.7,5.4s-2.7,2.8-4.5,3.7s-3.9,1.4-6.4,1.4h-5.3c-0.2,0-0.4-0.1-0.6-0.2 c-0.2-0.1-0.2-0.3-0.2-0.6V9.2c0-0.3,0.1-0.5,0.2-0.6c0.2-0.1,0.4-0.2,0.6-0.2c0.5,0,0.8,0.3,0.8,0.8v23.9h4.5c2.6,0,4.9-0.7,7-2 s3.6-3.2,4.5-5.6c0.9-2.2,1.3-4.8,1.3-7.8c0-2.4-0.4-4.7-1.1-6.9s-2-4.1-3.8-5.7c-1.4-1.2-2.8-2-4.2-2.5c-1.5-0.5-2.7-0.7-3.8-0.7 h-5.2V2z"/>
      <g>
        <path d="M5.2,16c-0.5,0-0.8-0.3-0.8-0.8V9c0-0.2,0.1-0.4,0.2-0.6C4.8,8.2,5,8.2,5.2,8.2s0.4,0.1,0.6,0.2 C6,8.6,6.1,8.8,6.1,9v5.4h12.7c0.2,0,0.4,0.1,0.6,0.2c0.1,0.2,0.2,0.4,0.2,0.6c0,0.5-0.3,0.8-0.8,0.8H5.2z"/>
        <path d="M35.1,1.1c0.1-0.4,0.4-0.6,0.8-0.6c0.1,0,0.2,0,0.3,0c0.2,0.1,0.4,0.2,0.5,0.4s0.1,0.5,0,0.7 c-0.2,0.4-0.4,0.6-0.8,0.6c-0.4-0.1-0.7-0.3-0.8-0.5C35,1.6,35,1.4,35.1,1.1L35.1,1.1z"/>
        <path d="M67.5,24.5c0.5,0,0.8,0.3,0.8,0.8v8.6c0,0.6-0.3,0.8-0.8,0.8c-0.2,0-0.4-0.1-0.6-0.2 c-0.2-0.1-0.2-0.4-0.2-0.6v-8.6c0-0.2,0.1-0.4,0.2-0.6C67,24.6,67.2,24.5,67.5,24.5z"/>
        <path d="M98.4,22.4c0.2,0,0.4,0.1,0.6,0.2s0.2,0.4,0.2,0.6V29h9.9c0.2,0,0.4,0.1,0.6,0.2c0.2,0.2,0.2,0.4,0.2,0.6 s-0.1,0.4-0.2,0.6c-0.2,0.1-0.4,0.2-0.6,0.2H98.4c-0.5,0-0.8-0.3-0.8-0.8v-6.7C97.6,22.7,97.9,22.4,98.4,22.4z"/>
        <path d="M131.1,34.9c-1.7-0.1-3.3-0.5-4.7-1.1c-1.5-0.6-2.7-1.5-3.8-2.6c-1-1.1-1.8-2.3-2.3-3.7 c-0.5-1.4-0.7-2.8-0.7-4.3c0.1-0.5,0.4-0.8,0.9-0.8c0.2,0,0.4,0.1,0.6,0.3c0.1,0.1,0.2,0.4,0.2,0.6c-0.1,2.6,0.7,4.8,2.5,6.7 c0.9,1,2,1.7,3.3,2.3s2.6,0.9,4.1,0.9c0.3,0,0.5,0.1,0.6,0.2c0.1,0.2,0.2,0.4,0.2,0.6c0,0.2-0.1,0.4-0.2,0.6 C131.6,34.8,131.4,34.9,131.1,34.9L131.1,34.9z"/>
        <path d="M162.7,13.2V5.5c0-0.2,0.1-0.4,0.2-0.6c0.2-0.2,0.4-0.2,0.6-0.2h9.2c0.3,0,0.5,0.1,0.6,0.2 c0.1,0.2,0.2,0.4,0.2,0.6c0,0.5-0.3,0.8-0.8,0.8h-8.4v6.9c0,0.5-0.3,0.8-0.8,0.8c-0.2,0-0.4-0.1-0.6-0.2 C162.8,13.6,162.7,13.4,162.7,13.2z"/>
        <path d="M193,16c-0.5,0-0.8-0.3-0.8-0.8V9c0-0.2,0.1-0.4,0.2-0.6c0.1-0.2,0.3-0.2,0.6-0.2c0.2,0,0.4,0.1,0.6,0.2 c0.2,0.2,0.2,0.4,0.2,0.6v5.4h12.7c0.2,0,0.4,0.1,0.6,0.2c0.1,0.2,0.2,0.4,0.2,0.6c0,0.5-0.3,0.8-0.8,0.8H193z"/>
        <path d="M222.8,1.1c0.1-0.4,0.4-0.6,0.8-0.6c0.1,0,0.2,0,0.3,0c0.2,0.1,0.4,0.2,0.5,0.4s0.1,0.5,0,0.7 c-0.2,0.4-0.4,0.6-0.8,0.6c-0.4-0.1-0.7-0.3-0.8-0.5C222.7,1.6,222.7,1.4,222.8,1.1L222.8,1.1z"/>
        <path d="M252.6,5.5c0-0.2,0.1-0.4,0.2-0.6c0.1-0.2,0.4-0.2,0.6-0.2c0.2,0,0.4,0.1,0.6,0.2 c0.1,0.2,0.2,0.4,0.2,0.6v12.7c0,1,0.1,1.9,0.3,2.9s0.5,1.9,0.9,2.8s0.9,1.7,1.5,2.5s1.4,1.4,2.2,1.9c0.2,0.1,0.3,0.3,0.4,0.5 s0,0.4-0.1,0.6s-0.4,0.3-0.7,0.3c-0.2,0-0.3,0-0.4-0.1c-1.8-1.1-3.2-2.7-4.2-4.7c-1-2.1-1.5-4.3-1.5-6.8L252.6,5.5L252.6,5.5z"/>
        <path d="M288.8,31.7c0,0.5-0.3,0.8-0.8,0.8s-0.8-0.3-0.8-0.8v-14c0-0.6,0.3-0.8,0.8-0.8c0.6,0,0.8,0.3,0.8,0.8 V31.7z"/>
        <path d="M327.6,30.6c-0.4-0.1-0.7-0.3-0.8-0.5c-0.1-0.2-0.1-0.5,0-0.7c0.1-0.3,0.2-0.5,0.4-0.5 c0.2,0,0.5-0.1,0.7-0.1c0.2,0.1,0.4,0.3,0.5,0.5s0.1,0.4,0,0.7l0,0C328.3,30.4,328,30.6,327.6,30.6z"/>
      </g>
    </g>
  </g>
</svg>