<svg xmlns="http://www.w3.org/2000/svg" viewBox="0 0 155 156" xml:space="preserve">
  <path fill-rule="evenodd" clip-rule="evenodd" fill="#FF757D" d="M90.8 14.4c.5 1.1 1.1 2 1.8 2.9s1.2 1.5 1.7 1.7c.6.2 1.2.1 1.6-.3.4-.4.8-1 1-1.8.2-.6.1-1.2-.1-1.8-.2-.6-.6-1.3-1-1.9-.4-.6-1-1.4-1.8-2.3-.9-1.1-1.6-2-2.1-2.8-.5-.7-.9-1.6-1.2-2.4-.3-.9-.3-1.7 0-2.6C91 1.8 91.8.8 93 .4c1.2-.5 2.7-.5 4.5 0 1.4.4 2.7.9 3.8 1.5 1.1.6 2 1.2 2.7 1.8l-3 4.4c-.2-.6-.5-1.4-1-2.5-.5-1-1-2-1.6-2.9-.6-.9-1-1.4-1.4-1.7-.5-.1-1 0-1.3.4s-.7.9-.9 1.6c-.1.5-.1 1.1.1 1.7.2.6.5 1.2.9 1.8.4.6 1 1.3 1.7 2.2.9 1.1 1.6 2.1 2.1 2.9.5.8.9 1.6 1.2 2.5.3.9.3 1.8 0 2.7-.8 3-3.2 4-7.1 3-1.6-.4-3.1-1-4.3-1.6-1.3-.6-2.2-1.3-2.9-1.9l3-4.4c.4.6.7 1.4 1.3 2.5m14.9-1.4c1-.6 2.1-1 3.3-1.1 1.2-.1 2.3.2 3.4.7.7.4 1.4.8 2.1 1.3.7.5 1.2 1 1.6 1.4l-3.1 2.4c-.2-1.1-.5-2.1-.9-3.2-.4-1-.7-1.6-1-1.8-.6-.3-1.2-.2-1.9.3s-1.3 1.2-1.8 2.3c-.4.8-.8 1.9-1 3.3-.2 1.3-.3 2.6-.1 3.7.2 1.1.7 1.9 1.4 2.3.4.1 1 .1 1.7 0 .8-.1 1.4-.3 1.9-.5l.2 1.5c-.9.1-1.7.2-2.4.1s-1.6-.3-2.5-.8c-1.2-.6-2.1-1.4-2.8-2.5-.7-1-1.1-2.2-1.1-3.4-.1-1.2.2-2.4.7-3.5.5-1 1.2-1.8 2.3-2.5m12.1 7.7.1-3.3 4.8 2.5-1.5 2c.8-.4 1.6-.7 2.3-.8.7-.1 1.3 0 1.8.3.7.6 1.6 1.5 2.4 2.9l-3.5 1.8c-.1-.8-.4-1.6-.7-2.5-.4-.9-.7-1.4-.9-1.6-.3-.1-1 .3-2.3 1l-3.6 4.6-.4 3.6-5.7-4.5 3.4-1.2 3.8-4.8zm8.3 12.6c-.7 1.1-1.2 2.3-1.5 3.4-.3 1.1-.1 2 .5 2.7.4.5 1.1.7 1.9.5.8-.2 1.7-.6 2.6-1.4.7-.6 1.5-1.5 2.2-2.6.7-1.1 1.2-2.3 1.5-3.4.3-1.1.1-2-.5-2.7-.4-.5-1.1-.7-1.9-.5-.8.2-1.7.6-2.6 1.4-.7.6-1.4 1.5-2.2 2.6m1.6-5.4c1.2-.2 2.3-.1 3.5.3 1.1.4 2.1 1.1 2.9 2 .8.9 1.3 2 1.5 3.2.2 1.2.1 2.3-.3 3.5-.4 1.1-1.1 2.1-2 2.9s-2 1.3-3.2 1.5c-1.2.2-2.3.1-3.5-.3-1.1-.4-2.1-1.1-2.9-2-.8-.9-1.3-2-1.5-3.2s-.1-2.3.3-3.5c.4-1.1 1.1-2.1 2-2.9 1-.7 2-1.2 3.2-1.5m4.2 16.3 10.5-6.2 1.7-3.2 3.6 4-14 8.3-1.7 3.2-3.7-6.2 3.6.1zm3.8 7 11.1-4.8 2-3 3 4.4-14.8 6.5-2 3-2.9-6.6 3.6.5zm18.8 15.9-3.9.6.3 2-.6.1-.3-2-8.9 1.4c-1 .2-1.8.3-2.1.5-.4.2-.5.4-.5.8.1.4.3.9.7 1.4l-.4.3c-.2-.2-.5-.5-.7-.9-.2-.4-.4-.9-.5-1.4-.2-1.2 0-2.1.4-2.7.5-.6 1.3-1 2.5-1.2l8.9-1.4-.2-1.2.5-.1 4.8 3.8zm-10.8 8.7c-1.3.4-2.4.9-3.4 1.6-.9.7-1.4 1.5-1.4 2.3 0 .7.3 1.2 1.1 1.6.7.4 1.7.6 2.9.6 1 0 2.1-.2 3.4-.5 1.3-.4 2.4-.9 3.4-1.6s1.4-1.5 1.4-2.3c0-.7-.3-1.2-1.1-1.6-.7-.4-1.7-.6-2.9-.6-1 0-2.1.2-3.4.5m4.7-2.9c1 .6 1.8 1.5 2.4 2.5.6 1.1.9 2.2.9 3.4 0 1.2-.3 2.4-1 3.4-.6 1-1.5 1.8-2.5 2.4-1 .6-2.2.9-3.4.9-1.2 0-2.4-.3-3.4-1-1-.6-1.8-1.5-2.4-2.5-.6-1.1-.9-2.2-.9-3.4 0-1.2.3-2.4 1-3.4.6-1 1.5-1.8 2.5-2.4 1-.6 2.2-.9 3.4-.9 1.3 0 2.4.3 3.4 1m-7.3 26-.5 5.3c.8.2 1.6.3 2.5.3.9 0 1.7-.1 2.3-.4.7-.3 1.2-.7 1.4-1.3.2-.6 0-1.2-.5-1.8-.6-.6-1.4-1.1-2.5-1.5-.8-.3-1.7-.5-2.7-.6m4.8-1.3c.8.9 1.3 2 1.5 3.2.2 1.2.1 2.3-.3 3.5-.4 1-1 1.9-1.9 2.5-.9.6-1.8 1.1-2.9 1.2-1 .2-2 .1-2.8-.2l.8-8.9c-1.4-.1-2.6.1-3.7.4-1.1.3-1.8.9-2.1 1.7-.1.4 0 1 .2 1.7s.5 1.4.8 1.9l-1.4.4c-.3-.8-.4-1.6-.5-2.4 0-.8.1-1.6.5-2.6.4-1.2 1.1-2.3 2.1-3.1.9-.8 2-1.3 3.2-1.6 1.2-.2 2.4-.1 3.5.3 1.2.4 2.2 1.1 3 2m-11.6 10.6 1.6 3.6h4l4.2-1-4 6.6-2.2-2.3h-2.8l1.2 2.6 2.9 1-2.4 4-.9-4.4-1.5-3.3h-4.3l-4.2 1 4-6.6 2.2 2.3h3.1l-1.3-2.9-2.9-1 2.4-4 .9 4.4zM123 121.8c-.5 0-.9.2-1.1.4-.6.6-.7 1.3-.4 2.2.3.9 1.1 1.9 2.3 3 1.2 1.1 2.2 1.9 3.1 2.1.9.3 1.6.1 2.2-.5.3-.3.4-.7.4-1.2s0-1.1-.1-1.9l-4.4-4.3c-.9.2-1.5.2-2 .2zm8.4 1.6 3.6.7-2.9 4.5-1.8-1.8c.2.8.3 1.7.2 2.5-.1.8-.4 1.5-.8 1.9-.7.7-1.5 1.2-2.5 1.3-.9.1-1.9-.1-2.9-.5s-1.9-1.1-2.9-2c-.9-.9-1.6-1.8-2.1-2.8-.5-1-.7-1.9-.6-2.9.1-.9.5-1.8 1.2-2.5.5-.5 1.1-.8 1.9-.9.8-.1 1.6-.1 2.5.1l-3.8-3.7-3.4-.9 4.8-5 .9 3.5 8.6 8.5zm-14.7 5.7 7.2 9.8 3.4 1.3-3.6 3.9L114 131l-3.4-1.3 5.8-4.3.3 3.7zm-7.2 7.2c-.9-1-1.9-1.7-3-2.3-1-.5-1.9-.6-2.7-.2-.6.3-.9.9-1 1.7 0 .8.2 1.8.7 2.8.4.9 1.1 1.8 2 2.8.9 1 1.9 1.7 3 2.3 1 .5 2 .6 2.7.2.6-.3.9-.9 1-1.7 0-.8-.2-1.8-.7-2.8-.4-.9-1.1-1.8-2-2.8m4.8 2.8c-.1 1.2-.4 2.3-1.1 3.3-.7 1-1.5 1.8-2.6 2.3-1.1.5-2.2.8-3.4.7-1.2-.1-2.3-.4-3.3-1.1-1-.7-1.8-1.5-2.3-2.6-.5-1.1-.8-2.2-.7-3.4.1-1.2.4-2.3 1.1-3.3.7-1 1.5-1.8 2.6-2.3 1.1-.5 2.2-.8 3.4-.7 1.2.1 2.3.4 3.3 1.1 1 .7 1.8 1.5 2.3 2.6.6 1.1.8 2.2.7 3.4M99 145.2l2.6 2.1-4.8 2.3-.6-2.4c-.2.9-.4 1.7-.8 2.3-.3.7-.8 1.1-1.3 1.2-.9.2-2.2.3-3.8.2l.7-3.9c.7.4 1.5.7 2.4.9.9.2 1.5.3 1.8.2.2-.2.4-1 .6-2.4l-1.5-5.6-2.7-2.5 7-1.8-1.1 3.5 1.5 5.9zm-14.8-.3-5.1 1.7c.1.8.4 1.6.7 2.4s.8 1.5 1.3 2 1.1.8 1.8.7c.6 0 1.1-.4 1.5-1.2.3-.8.5-1.7.4-2.9-.1-.8-.3-1.7-.6-2.7m3.1 3.8c-.5 1.1-1.3 1.9-2.3 2.6-1 .7-2.1 1.1-3.3 1.1-1.1.1-2.1-.2-3.1-.7-.9-.5-1.7-1.3-2.3-2.1-.6-.9-.9-1.8-1-2.7l8.5-2.8c-.5-1.3-1.1-2.4-1.9-3.2-.7-.8-1.5-1.2-2.4-1.2-.4.1-.9.4-1.5.9s-1 1-1.4 1.5l-.9-1.2c.7-.6 1.3-1 2-1.4.7-.3 1.5-.5 2.6-.6 1.3-.1 2.5.1 3.6.7 1.1.5 2 1.3 2.7 2.3.7 1 1.1 2.1 1.2 3.3.3 1.3.1 2.4-.5 3.5m-25.1-7c-.5-1.1-1.1-2.1-1.7-3-.6-.9-1.2-1.5-1.6-1.8-.6-.2-1.2-.1-1.6.3-.5.4-.8 1-1 1.8-.2.6-.2 1.2 0 1.8s.5 1.3.9 1.9c.4.6 1 1.4 1.7 2.3.9 1.1 1.5 2.1 2 2.8.5.8.8 1.6 1.1 2.5.2.9.2 1.8 0 2.6-.4 1.4-1.2 2.3-2.5 2.7-1.2.4-2.7.4-4.5-.1-1.4-.4-2.6-.9-3.7-1.6-1.1-.6-2-1.3-2.7-1.9l3.1-4.3c.2.6.5 1.5 1 2.5.5 1.1 1 2 1.5 2.9.5.9 1 1.5 1.4 1.7.5.2 1 0 1.3-.3.4-.4.7-.9.9-1.6.2-.5.1-1.1-.1-1.7-.2-.6-.5-1.2-.9-1.8-.4-.6-.9-1.4-1.6-2.3-.9-1.2-1.6-2.1-2.1-2.9-.5-.8-.9-1.6-1.1-2.5s-.2-1.8 0-2.7c.9-3 3.3-4 7.2-2.8 1.6.5 3.1 1.1 4.3 1.7 1.2.7 2.2 1.3 2.8 1.9l-3.1 4.3c-.2-.5-.5-1.3-1-2.4m-14.9 1c-1 .6-2.1.9-3.3 1-1.2 0-2.3-.2-3.4-.8-.7-.4-1.3-.8-2-1.4-.7-.5-1.2-1-1.5-1.4l3.2-2.3c.2 1.1.5 2.2.8 3.2.4 1 .7 1.6.9 1.9.6.3 1.2.2 1.9-.2.7-.5 1.3-1.2 1.9-2.2.5-.8.8-1.9 1.1-3.2.3-1.3.4-2.6.2-3.7-.2-1.2-.6-1.9-1.4-2.4-.4-.1-1-.1-1.7 0-.8.1-1.4.3-2 .5l-.1-1.5c.9-.1 1.7-.1 2.4-.1.7.1 1.6.4 2.5.9 1.1.6 2 1.5 2.7 2.5.7 1.1 1 2.2 1 3.4 0 1.2-.2 2.4-.8 3.4-.6.9-1.4 1.8-2.4 2.4m-12-8.1-.2 3.3-4.7-2.6 1.6-1.9c-.8.4-1.6.6-2.3.7-.7.1-1.3 0-1.7-.4-.7-.6-1.5-1.6-2.4-2.9l3.6-1.7c.1.8.3 1.6.7 2.5.3.9.6 1.4.8 1.6.3.1 1.1-.2 2.3-.9l3.7-4.5.5-3.6 5.5 4.6-3.5 1.1-3.9 4.7zm-7.9-12.8c.8-1.1 1.3-2.2 1.6-3.4.3-1.1.2-2-.4-2.7-.4-.5-1-.7-1.9-.6-.8.1-1.7.6-2.6 1.3-.7.6-1.5 1.5-2.3 2.6-.8 1.1-1.3 2.2-1.6 3.4-.3 1.1-.2 2 .4 2.7.4.5 1.1.7 1.9.6.8-.1 1.7-.6 2.6-1.3.8-.6 1.5-1.5 2.3-2.6m-1.8 5.3c-1.2.2-2.3 0-3.5-.4-1.1-.4-2.1-1.1-2.8-2.1-.8-1-1.2-2-1.4-3.2-.2-1.2 0-2.3.4-3.5.4-1.1 1.1-2.1 2.1-2.8 1-.8 2-1.2 3.2-1.4 1.2-.2 2.3 0 3.5.4 1.1.4 2.1 1.1 2.8 2.1.8 1 1.2 2 1.4 3.2.2 1.2 0 2.3-.4 3.5-.4 1.1-1.1 2.1-2.1 2.8-.9.8-2 1.2-3.2 1.4m-3.7-16.4-10.6 5.9-1.7 3.2-3.4-4.1 14.2-7.9 1.7-3.2 3.5 6.3-3.7-.2zm-3.5-7.1-11.3 4.5-2.1 3-2.9-4.5 15.1-6 2.1-2.9 2.7 6.7-3.6-.8zM0 87.2l3.9-.5-.3-2 .6-.1.3 2 8.9-1.1c1-.1 1.8-.3 2.1-.5.4-.2.5-.4.5-.8-.1-.4-.3-.9-.7-1.4l.4-.3c.2.2.5.5.7 1 .2.4.4.9.4 1.4.2 1.2 0 2.1-.5 2.7-.5.6-1.3 1-2.6 1.1L5 89.9l.1 1.2-.5.1-4.6-4zm11.1-8.4c1.3-.3 2.4-.9 3.4-1.5 1-.7 1.4-1.4 1.5-2.3 0-.7-.3-1.2-1-1.7-.7-.4-1.7-.7-2.8-.7-1 0-2.1.1-3.4.5-1.3.3-2.4.9-3.4 1.5-1 .7-1.4 1.4-1.5 2.3 0 .7.3 1.2 1 1.7.7.4 1.7.7 2.8.7 1 0 2.1-.1 3.4-.5m-4.8 2.9c-1-.6-1.8-1.5-2.4-2.5-.6-1.1-.8-2.2-.8-3.4 0-1.2.4-2.3 1-3.4.6-1 1.5-1.8 2.5-2.4 1.1-.6 2.2-.8 3.4-.8 1.2 0 2.4.4 3.4 1s1.8 1.5 2.4 2.5c.6 1.1.8 2.2.8 3.4 0 1.2-.4 2.4-1 3.4s-1.5 1.8-2.5 2.4-2.2.8-3.4.8c-1.3 0-2.4-.4-3.4-1m8-25.9.7-5.3c-.8-.2-1.6-.3-2.4-.4-.9 0-1.7.1-2.4.3-.7.2-1.2.7-1.4 1.3-.2.6-.1 1.2.5 1.8.5.6 1.4 1.2 2.4 1.6.7.3 1.6.6 2.6.7M9.5 57c-.7-.9-1.2-2-1.4-3.2-.2-1.2-.1-2.3.4-3.4.4-1 1.1-1.8 2-2.5.9-.6 1.9-1 2.9-1.1 1-.1 2 0 2.8.3L15.1 56c1.4.1 2.6 0 3.7-.3s1.8-.9 2.1-1.7c.1-.4 0-1-.2-1.7s-.4-1.4-.7-1.9l1.5-.3c.2.8.4 1.6.4 2.4 0 .8-.2 1.6-.6 2.6-.5 1.2-1.2 2.2-2.2 3-1 .8-2 1.3-3.2 1.5-1.2.2-2.4.1-3.5-.4-1.2-.6-2.1-1.3-2.9-2.2m11.8-10.3-1.5-3.6-4-.1-4.2.9 4.2-6.5 2.1 2.4 2.8.1-1.1-2.7-2.9-1.2 2.5-3.9.8 4.4 1.4 3.3 4.3.1L30 39l-4.2 6.5-2.1-2.4-3.1-.1 1.2 3 2.9 1.1-2.5 3.9-.9-4.3zM33 33.4c.5 0 .9-.2 1.2-.4.6-.6.7-1.3.4-2.2-.3-.9-1-1.9-2.2-3.1-1.2-1.2-2.2-1.9-3.1-2.2-.9-.3-1.6-.2-2.2.4-.3.3-.4.6-.4 1.1 0 .5 0 1.1.1 1.9l4.3 4.4c.8.1 1.4.2 1.9.1zm-8.3-1.8-3.5-.8 3-4.4 1.8 1.8c-.2-.8-.2-1.7-.1-2.5s.4-1.4.9-1.9c.7-.7 1.6-1.1 2.5-1.2.9-.1 1.9.1 2.9.6s1.9 1.2 2.8 2.1c.9.9 1.6 1.8 2 2.8.5 1 .6 1.9.5 2.9-.1.9-.5 1.8-1.2 2.5-.5.5-1.1.8-1.9.9-.8.1-1.6.1-2.5-.1l3.7 3.8 3.4 1-5 4.9-.8-3.6-8.5-8.8zm14.9-5.3-6.9-10-3.3-1.4 3.8-3.8 9.2 13.4 3.3 1.4-6 4.1-.1-3.7zm7.4-6.9c.9 1 1.9 1.8 2.9 2.3 1 .5 1.9.6 2.7.3.6-.3 1-.8 1-1.7.1-.8-.2-1.8-.7-2.9-.4-.9-1.1-1.8-2-2.8-.9-1-1.9-1.8-2.9-2.3-1-.5-1.9-.6-2.7-.3-.6.3-1 .8-1 1.7-.1.8.2 1.8.7 2.9.4.8 1.1 1.7 2 2.8m-4.8-3c.1-1.2.5-2.3 1.2-3.3s1.6-1.7 2.7-2.3c1.1-.5 2.3-.7 3.5-.6 1.2.1 2.3.5 3.3 1.2s1.7 1.6 2.3 2.7c.5 1.1.7 2.3.6 3.5-.1 1.2-.5 2.3-1.2 3.3s-1.6 1.7-2.7 2.3c-1.1.5-2.3.7-3.5.6-1.2-.1-2.3-.5-3.3-1.2s-1.7-1.6-2.3-2.7c-.5-1.2-.7-2.3-.6-3.5m15.5-5.7-2.5-2.2 4.9-2.2.6 2.4c.2-.9.5-1.7.8-2.3.4-.6.8-1 1.4-1.2.9-.2 2.2-.3 3.8-.1l-.8 3.8c-.7-.4-1.5-.7-2.4-1-.9-.3-1.5-.4-1.8-.3-.2.2-.4 1-.6 2.4l1.3 5.7 2.6 2.5-7 1.6 1.2-3.4-1.5-5.7zm14.8.8 5.1-1.5c-.1-.8-.3-1.6-.6-2.4-.3-.8-.7-1.5-1.2-2-.6-.6-1.1-.9-1.8-.8-.6 0-1.1.4-1.5 1.2-.4.7-.5 1.7-.5 2.8 0 .8.2 1.7.5 2.7m-3-3.9c.6-1.1 1.4-1.9 2.4-2.6 1-.7 2.1-1 3.3-1 1.1 0 2.1.2 3 .8.9.6 1.7 1.3 2.2 2.2.6.9.8 1.8.9 2.7l-8.6 2.6c.5 1.3 1 2.4 1.8 3.3.7.9 1.5 1.3 2.4 1.3.4-.1.9-.4 1.5-.9s1.1-.9 1.4-1.4l.9 1.2c-.7.6-1.4 1-2 1.3-.7.3-1.5.5-2.6.5-1.3 0-2.5-.2-3.6-.8-1.1-.6-2-1.4-2.6-2.4-.7-1-1-2.1-1.1-3.4-.1-1.2.1-2.4.7-3.4"/>
</svg>