<svg xmlns="http://www.w3.org/2000/svg" xmlns:xlink="http://www.w3.org/1999/xlink" viewBox="0 0 497 279" xml:space="preserve">
  <g class="logo-dots">
		<path fill="#F1747D" d="M178.9,108c2.1-3.7,6.6-5,10.2-2.9c3.6,2,4.8,6.5,2.8,10.1c-2.1,3.7-6.6,5-10.2,2.9
		C178.1,116.1,176.9,111.6,178.9,108z M174.7,96.5c-3.8-2.2-8.5-1-10.7,2.8s-0.9,8.6,2.9,10.8c3.7,2.1,8.5,0.9,10.7-2.8
		C179.8,103.5,178.5,98.7,174.7,96.5z M354.2,209c2.1-3.8,0.8-8.7-2.9-10.8c-3.8-2.2-8.8-0.8-11,3v0c-2.2,3.8-0.7,8.8,3.1,10.9
		C347.2,214.2,352.1,212.8,354.2,209z M339,200.3c2.1-3.6,0.8-8.3-2.8-10.4c-3.7-2.1-8.4-0.8-10.4,2.9s-0.7,8.4,2.9,10.4
		C332.3,205.2,336.9,203.9,339,200.3z M209.6,36.1c3.5,2,8,0.8,10.1-2.7c2.1-3.5,0.8-8.1-2.7-10.2c-3.5-2-8.1-0.8-10.1,2.7
		C204.8,29.4,206.1,34,209.6,36.1z M232.5,30.2c3.7,2.1,8.4,0.8,10.5-2.9c2.1-3.7,0.8-8.4-2.9-10.5c-3.7-2.1-8.4-0.8-10.5,2.9
		C227.5,23.4,228.8,28.1,232.5,30.2z M196.8,126.5c3.4,1.9,7.9,0.6,9.7-2.8c1.9-3.4,0.6-7.8-2.8-9.6c-3.4-1.9-7.9-0.6-9.7,2.8
		C192.1,120.2,193.4,124.6,196.8,126.5z M180.4,154.6c2.7,1.5,6.2,0.5,7.7-2.2c1.5-2.7,0.5-6.1-2.1-7.6c-2.6-1.5-6.1-0.6-7.7,2.1
		C176.8,149.6,177.7,153.1,180.4,154.6z M268,159.5c-1.7,3.1-0.6,7.1,2.5,8.9c3.2,1.8,7.2,0.6,9-2.6c1.7-3.2,0.5-7.1-2.6-8.9
		C273.8,155.2,269.8,156.3,268,159.5z M195.3,162.6c2.5,1.4,5.6,0.5,7-2c1.4-2.5,0.5-5.6-2-7c-2.5-1.4-5.6-0.5-7,2
		C191.9,158.1,192.8,161.2,195.3,162.6z M297.2,176.2c-1.9,3.3-0.8,7.5,2.5,9.4c3.4,2,7.6,0.8,9.5-2.6c1.9-3.3,0.8-7.5-2.6-9.4
		C303.3,171.8,299.2,172.9,297.2,176.2z M197.3,138c1.8-3.1,0.7-6.9-2.3-8.7c-3.1-1.8-6.9-0.7-8.7,2.3c-1.8,3.1-0.8,6.9,2.2,8.7
		C191.6,142.1,195.5,141.1,197.3,138z M262.5,182.2c2.7,1.6,6.3,0.6,7.8-2.1s0.6-6.1-2-7.7c-2.8-1.6-6.3-0.7-7.9,2
		C258.8,177.1,259.8,180.7,262.5,182.2z M282.9,180.6c-2.8-1.6-6.4-0.7-8,2.2c-1.6,2.8-0.6,6.4,2.2,8c2.8,1.6,6.3,0.6,8-2.1
		C286.6,185.9,285.7,182.3,282.9,180.6z M311.6,184.5c-2,3.5-0.9,7.9,2.7,9.9c3.5,2,7.9,0.8,9.9-2.7s0.8-7.8-2.6-9.8
		C317.9,179.8,313.6,181,311.6,184.5z M294.1,174.4c1.9-3.2,0.8-7.2-2.4-9.1c-3.2-1.9-7.3-0.8-9.1,2.5s-0.7,7.3,2.5,9.1
		C288.3,178.7,292.3,177.6,294.1,174.4z M220.8,132.1c1.9-3.3,0.7-7.5-2.6-9.4c-3.3-1.9-7.5-0.7-9.3,2.6c-1.9,3.3-0.7,7.5,2.6,9.4
		C214.8,136.5,218.9,135.3,220.8,132.1z M211.6,146.3c1.6-2.9,0.6-6.5-2.2-8.2c-2.9-1.7-6.5-0.8-8.2,2.2c-1.7,2.9-0.7,6.6,2.2,8.3
		C206.3,150.3,210,149.3,211.6,146.3z M182.8,129.7c1.9-3.1,0.8-7.4-2.4-9.3c-3.2-1.9-7.4-0.8-9.3,2.4c-1.9,3.2-0.7,7.5,2.5,9.3
		C176.8,133.9,180.9,132.8,182.8,129.7z M264.6,157.3c1.7-3.1,0.6-7.1-2.4-8.8c-3.1-1.8-7.2-0.7-9,2.4c-1.8,3.1-0.6,7.2,2.5,8.9
		C258.8,161.5,262.9,160.4,264.6,157.3z M240.8,163.1c1.5-2.7,0.5-6.3-2.2-7.8c-2.7-1.5-6.2-0.4-7.7,2.2c-1.5,2.7-0.5,6.2,2.2,7.7v0
		C235.8,166.7,239.3,165.7,240.8,163.1z M220,18c1.7,1,3.7,0.4,4.7-1.3s0.4-3.7-1.3-4.7c-1.7-0.9-3.7-0.3-4.7,1.3
		C217.7,15,218.3,17,220,18z M243.3,11.6c1.6,0.9,3.6,0.4,4.5-1.2c0.9-1.6,0.4-3.6-1.3-4.6c-1.6-1-3.6-0.4-4.5,1.2
		C241.1,8.6,241.6,10.6,243.3,11.6z M389.9,96.8c1.6,0.9,3.6,0.4,4.5-1.2c0.9-1.6,0.4-3.6-1.3-4.6c-1.6-1-3.5-0.4-4.5,1.2
		C387.7,93.8,388.2,95.8,389.9,96.8z M396.1,119.9c1.7,1,3.7,0.4,4.7-1.3s0.4-3.7-1.3-4.7s-3.8-0.4-4.7,1.3
		C393.8,116.9,394.4,118.9,396.1,119.9z M384.2,72.3c1,0.6,2.3,0.2,2.9-0.8c0.6-1.1,0.3-2.4-0.8-3c-1-0.5-2.3-0.2-2.9,0.8
		C382.8,70.4,383.1,71.7,384.2,72.3z M157.2,160.4c2.5,1.5,5.9,0.6,7.4-2c1.5-2.5,0.6-5.9-1.9-7.4s-5.9-0.6-7.4,2
		C153.8,155.6,154.7,158.9,157.2,160.4z M150.7,138.2c3.1,1.7,6.9,0.6,8.6-2.5c1.7-3,0.6-6.8-2.4-8.5c-3.1-1.8-6.9-0.7-8.6,2.4
		C146.6,132.7,147.6,136.5,150.7,138.2z M156.2,114.2c-2,3.4-0.8,7.8,2.6,9.8c3.4,2,7.8,0.8,9.8-2.7c1.9-3.4,0.8-7.7-2.6-9.7
		C162.6,109.7,158.2,110.8,156.2,114.2z M173.8,144.1c1.6-3,0.6-6.6-2.4-8.2c-3-1.7-6.6-0.7-8.3,2.2c-1.7,2.9-0.7,6.6,2.3,8.3
		C168.4,148.1,172.1,147.1,173.8,144.1z M159.6,88.8c-3.4-1.9-7.5-0.8-9.4,2.6c-1.9,3.4-0.8,7.6,2.6,9.5c3.4,1.9,7.5,0.7,9.4-2.6
		C164.1,94.9,163,90.7,159.6,88.8z M142.7,106.5c-1.6,2.8-0.6,6.3,2.2,7.9c2.9,1.6,6.3,0.7,7.9-2.2c1.6-2.8,0.6-6.3-2.2-7.9
		C147.8,102.7,144.3,103.7,142.7,106.5z M300.2,197.3c1.6-3,0.5-6.8-2.5-8.4c-3-1.6-6.8-0.5-8.4,2.5c-1.6,3-0.5,6.8,2.5,8.4
		S298.6,200.3,300.2,197.3z M206.1,178c-1.8-1-4.2-0.4-5.2,1.4c-1.1,1.7-0.5,4.2,1.4,5.3c1.8,1.1,4.3,0.4,5.3-1.4
		C208.7,181.5,208,179,206.1,178z M211.4,202.8c-1.1-0.7-2.4-0.3-3,0.8l0,0c-0.6,1-0.2,2.4,0.9,3c1,0.6,2.4,0.2,2.9-0.9
		C212.7,204.7,212.4,203.4,211.4,202.8z M197.1,193.8c-1.3-0.8-3-0.3-3.7,1c-0.8,1.3-0.3,3,1,3.7c1.3,0.8,3,0.3,3.7-1
		C198.8,196.3,198.3,194.6,197.1,193.8z M201.9,218.3c-0.5,0.1-1,0.5-1,1s0.4,1,1,1c0.5,0,1-0.4,1-1
		C202.9,218.8,202.5,218.3,201.9,218.3z M217,169c1.2-2.3,0.4-5.3-1.9-6.5c-2.4-1.3-5.4-0.5-6.6,1.8c-1.3,2.3-0.5,5.3,1.8,6.6
		C212.6,172.2,215.7,171.4,217,169z M231.3,177.4c1.3-2.2,0.5-5-1.7-6.3c-2.3-1.3-5-0.5-6.3,1.7c-1.3,2.2-0.5,5,1.7,6.3
		C227.2,180.4,230,179.6,231.3,177.4z M235.2,195.2c-1.7-1-3.8-0.5-4.8,1.2c-1,1.7-0.5,3.8,1.2,4.8c1.7,1,3.8,0.5,4.8-1.2
		C237.5,198.2,236.9,196.2,235.2,195.2z M231.3,235.1c-0.5,0-1,0.5-1,1s0.4,1,1,1c0.5,0,1-0.4,1-1
		C232.3,235.5,231.9,235.1,231.3,235.1z M225.9,211.3c-0.9-0.5-2.2-0.2-2.7,0.7c-0.5,0.9-0.2,2.2,0.7,2.7c0.9,0.5,2.2,0.2,2.7-0.7
		C227.1,213.1,226.8,211.9,225.9,211.3z M220.6,186.5c-1.7-0.8-3.9-0.2-4.9,1.4c-1,1.7-0.4,4,1.4,5c1.7,0.9,3.9,0.3,4.9-1.4
		S222.4,187.5,220.6,186.5z M163.8,215.1c-0.9,0-1.7,0.8-1.7,1.7c0,0.9,0.8,1.7,1.7,1.7c0.9,0,1.7-0.8,1.7-1.7
		C165.5,215.9,164.7,215.1,163.8,215.1z M191.4,168.9c-2-1.1-4.6-0.3-5.8,1.7c-1.2,2.1-0.4,4.7,1.7,5.9c2.1,1.1,4.6,0.4,5.8-1.7
		C194.3,172.7,193.5,170.1,191.4,168.9z M168.1,175.6c-1.9-1.1-4.3-0.4-5.5,1.6c-1.1,2-0.4,4.4,1.5,5.5c2,1.2,4.5,0.5,5.6-1.6
		C170.8,179.1,170.1,176.7,168.1,175.6z M157.8,190.6c-1.8,0-3.2,1.4-3.2,3.2c0,1.7,1.4,3.2,3.2,3.2c1.7,0,3.2-1.4,3.2-3.2
		S159.6,190.6,157.8,190.6z M155.2,172.7c1.2-2.2,0.5-4.8-1.7-6c-2.1-1.1-4.7-0.4-5.9,1.7c-1.2,2.2-0.5,4.8,1.7,6
		C151.4,175.6,154,174.9,155.2,172.7z M179,166.7c1.3-2.3,0.5-5.3-1.8-6.6c-2.3-1.3-5.3-0.5-6.6,1.8c-1.4,2.3-0.5,5.4,1.8,6.7
		C174.7,169.9,177.7,169,179,166.7z M187.2,209.2c-0.9,0-1.7,0.8-1.7,1.7c0,0.9,0.8,1.7,1.7,1.7c0.9,0,1.7-0.8,1.7-1.7
		C188.9,210,188.1,209.2,187.2,209.2z M182.5,184.6c-1.6-0.9-3.7-0.4-4.7,1.3c-0.9,1.6-0.3,3.7,1.3,4.7c1.6,0.9,3.7,0.4,4.7-1.3
		C184.7,187.7,184.2,185.6,182.5,184.6z M172.3,199.5c-1.5,0-2.7,1.2-2.7,2.7s1.2,2.7,2.7,2.7s2.7-1.2,2.7-2.7
		S173.8,199.5,172.3,199.5z M314.4,262.1c-1.3-0.8-3.1-0.3-3.9,1s-0.3,3.1,1,3.9s3.1,0.3,3.9-1S315.7,262.9,314.4,262.1z
		M311.7,243.3c1.5-2.7,0.6-6-2.1-7.5c-2.6-1.4-5.9-0.5-7.4,2.1c-1.5,2.7-0.6,6,2.1,7.5C306.9,246.9,310.2,246,311.7,243.3z
		M300.5,251.7c-2.1-1.2-4.7-0.5-5.9,1.7c-1.2,2.1-0.5,4.7,1.7,5.9c2.1,1.2,4.7,0.5,5.9-1.7C303.4,255.5,302.7,252.9,300.5,251.7z
		M291.1,268c-1.2-0.6-2.6-0.2-3.2,0.9h0c-0.7,1.2-0.3,2.5,0.9,3.2c1.2,0.7,2.6,0.3,3.3-0.9C292.7,270,292.3,268.7,291.1,268z
		M296.7,234.6c1.3-2.4,0.5-5.4-1.9-6.8c-2.4-1.3-5.4-0.5-6.8,1.9c-1.4,2.4-0.6,5.4,1.8,6.8C292.2,237.9,295.3,237.1,296.7,234.6z
		M356.3,223.1c-2.8-1.6-6.3-0.6-7.9,2.2c-1.6,2.8-0.6,6.3,2.2,7.9c2.8,1.6,6.3,0.6,7.9-2.2C360.1,228.2,359.1,224.7,356.3,223.1z
		M335.7,237.6c1.7-3,0.6-6.8-2.4-8.5c-3-1.8-6.8-0.7-8.6,2.4c-1.7,3.1-0.7,6.9,2.4,8.6C330.2,241.8,334,240.7,335.7,237.6z
		M367.8,217c1.9-3.4,0.8-7.6-2.6-9.5c-3.3-1.9-7.4-0.8-9.4,2.6c-1.9,3.4-0.8,7.6,2.6,9.5C361.8,221.5,365.9,220.3,367.8,217z
		M346.9,239.3c-2-1.1-4.7-0.4-5.8,1.6c-1.1,2-0.4,4.7,1.7,5.8c2,1.1,4.6,0.4,5.7-1.6C349.7,243.2,348.9,240.5,346.9,239.3z
		M245.9,243c-1,0-1.7,0.7-1.7,1.7c0,0.9,0.8,1.7,1.7,1.7c0.9,0,1.7-0.8,1.7-1.7C247.6,243.8,246.8,243,245.9,243z M286,243.4
		c-2.1-1.2-4.7-0.5-5.9,1.5c-1.2,2-0.5,4.7,1.5,5.9s4.7,0.5,5.9-1.5C288.7,247.3,288,244.6,286,243.4z M255.7,227.6
		c-1.4-0.9-3.1-0.4-3.9,1c-0.8,1.4-0.4,3.1,1,4c1.5,0.9,3.2,0.4,4-1.1C257.6,230.1,257.1,228.4,255.7,227.6z M252.2,266.3
		c-0.9,0-1.7,0.7-1.7,1.7c0,0.9,0.8,1.7,1.7,1.7c0.9,0,1.7-0.8,1.7-1.7S253.1,266.3,252.2,266.3z M240.8,219.6
		c-1.2-0.6-2.6-0.2-3.2,0.9c-0.6,1.1-0.2,2.4,0.9,3.1c1.2,0.6,2.5,0.2,3.2-0.9C242.3,221.6,241.9,220.2,240.8,219.6z M251.5,208.6
		c1-1.8,0.4-4.1-1.4-5.1c-1.7-1-4-0.4-5,1.3c-1,1.8-0.4,4.1,1.3,5.1C248.1,210.9,250.5,210.3,251.5,208.6z M276.9,258.9
		c-1.5-0.9-3.4-0.3-4.3,1.2c-0.9,1.5-0.3,3.4,1.2,4.3c1.5,0.9,3.4,0.3,4.3-1.2C278.9,261.7,278.4,259.8,276.9,258.9z M262.1,250.9
		c-1.3-0.8-3-0.3-3.7,0.9h0c-0.8,1.3-0.3,3,0.9,3.8c1.3,0.8,3.1,0.3,3.8-1C263.8,253.3,263.3,251.6,262.1,250.9z M270.9,235.4
		c-1.6-1-4-0.4-5,1.4s-0.3,4.1,1.4,5.1c1.8,1,4.1,0.3,5-1.5C273.2,238.7,272.6,236.4,270.9,235.4z M239.7,187.6
		c2.2,1.2,5,0.4,6.2-1.9c1.2-2.2,0.4-4.9-1.8-6.2c-2.2-1.2-5-0.4-6.2,1.8C236.6,183.5,237.4,186.3,239.7,187.6z M283.5,213.8
		c2.6,1.4,5.9,0.5,7.3-2.1c1.4-2.5,0.5-5.8-2-7.2c-2.6-1.4-5.9-0.5-7.3,2.1C280.1,209.2,281,212.4,283.5,213.8z M297.9,222.6
		c2.8,1.6,6.3,0.7,7.9-2.2c1.6-2.8,0.6-6.2-2.1-7.8c-2.8-1.6-6.3-0.7-7.9,2.2C294.2,217.6,295.2,221,297.9,222.6z M275.5,227.7
		c2.1,1.2,4.9,0.5,6.1-1.6c1.2-2.1,0.5-5-1.7-6.2c-2.1-1.2-4.9-0.4-6.1,1.7C272.6,223.7,273.4,226.5,275.5,227.7z M315,205.9
		c1.8-3,0.7-7.1-2.4-8.9c-3.1-1.8-7.2-0.7-8.9,2.4c-1.8,3.1-0.6,7.2,2.5,8.9C309.3,210,313.3,208.9,315,205.9z M335.2,225.9
		c3.5,2,7.9,0.9,9.9-2.7c2-3.4,0.8-7.8-2.7-9.8c-3.5-1.9-7.8-0.7-9.8,2.7C330.6,219.5,331.7,223.9,335.2,225.9z M268.8,204.8
		c2.4,1.4,5.4,0.6,6.8-1.8c1.4-2.4,0.5-5.3-1.8-6.7c-2.4-1.4-5.3-0.6-6.7,1.8C265.7,200.5,266.5,203.4,268.8,204.8z M312.3,231.5
		c2.9,1.7,6.8,0.6,8.5-2.3c1.7-3,0.7-6.9-2.3-8.6c-3-1.7-6.9-0.7-8.6,2.3S309.3,229.8,312.3,231.5z M329.9,214.6
		c1.9-3.3,0.8-7.5-2.5-9.4c-3.3-1.9-7.5-0.8-9.4,2.5c-1.9,3.3-0.8,7.5,2.5,9.4C323.8,219,328,217.9,329.9,214.6z M260.8,218.7
		c1.9,1.2,4.4,0.5,5.5-1.5c1.1-1.9,0.4-4.3-1.5-5.4c-1.8-1.2-4.3-0.5-5.4,1.4C258.3,215.1,258.9,217.5,260.8,218.7z M218.3,156.8
		c2.8,1.6,6.3,0.7,7.9-2.1c1.7-2.8,0.7-6.3-2.1-7.9c-2.8-1.6-6.3-0.7-7.9,2.1C214.6,151.7,215.5,155.2,218.3,156.8z M149.3,206.8
		c-0.9,0-1.7,0.8-1.7,1.7c0,0.9,0.8,1.7,1.7,1.7c0.9,0,1.7-0.8,1.7-1.7C151,207.6,150.2,206.8,149.3,206.8z M235.5,140.5
		c1.8-3.2,0.7-7.2-2.6-9c-3.2-1.9-7.1-0.8-9,2.5c-1.8,3.2-0.7,7.2,2.5,9C229.6,144.9,233.6,143.7,235.5,140.5z M254.3,196.2
		c2.3,1.3,5.1,0.5,6.4-1.8c1.4-2.3,0.6-5-1.7-6.3c-2.3-1.3-5.1-0.5-6.4,1.8C251.3,192.2,252.1,194.9,254.3,196.2z M247.8,173.6
		c2.8,1.4,6.2,0.4,7.6-2.4s0.4-6.1-2.3-7.5c-2.8-1.4-6.2-0.4-7.6,2.4C244.1,168.9,245.2,172.2,247.8,173.6z M250,148.9
		c1.8-3.1,0.6-7.2-2.5-8.9c-3.1-1.8-7.2-0.6-8.9,2.5c-1.8,3.1-0.6,7.1,2.5,8.9C244.2,153.2,248.3,152,250,148.9z M142.9,126.4
		c1.1-2,0.4-4.7-1.6-5.8c-2-1.1-4.7-0.4-5.8,1.6c-1.1,2-0.4,4.7,1.7,5.8C139.2,129.1,141.8,128.4,142.9,126.4z M149.9,149.9
		c1.5-2.6,0.6-5.8-2-7.2c-2.5-1.4-5.7-0.6-7.2,2c-1.5,2.6-0.6,5.9,2,7.3C145.3,153.4,148.4,152.5,149.9,149.9z M142.9,182.8
		c-1.3,0-2.4,1.1-2.4,2.4s1.1,2.4,2.4,2.4s2.4-1.1,2.4-2.4C145.3,183.9,144.2,182.8,142.9,182.8z M138.2,159.7
		c-1.3-0.8-3.1-0.3-3.9,1c-0.8,1.3-0.3,3.1,1,3.9c1.3,0.8,3.1,0.3,3.9-1S139.5,160.5,138.2,159.7z M264.2,273.7v-1l-1,1H264.2z
		M266.9,274.7c-0.9,0-1.7,0.8-1.7,1.7c0,0.9,0.8,1.7,1.7,1.7c0.9,0,1.7-0.8,1.7-1.7C268.6,275.5,267.8,274.7,266.9,274.7z
		M375.7,217.9c-2.2,0-4,1.8-4,4c0,2.2,1.8,4,4,4s4-1.8,4-4C379.7,219.7,377.9,218,375.7,217.9z M259.7,23.8c3.7,0,6.6-3,6.6-6.6
		c0-3.6-2.9-6.6-6.6-6.6s-6.6,2.9-6.6,6.6S256,23.8,259.7,23.8z M395.9,149.9c-2.6,0-4.7,2.1-4.7,4.7c0,2.6,2.1,4.7,4.7,4.7
		c2.6,0,4.7-2.1,4.7-4.7C400.6,152,398.5,149.9,395.9,149.9z M401.4,176.1c-1,0-1.8,0.8-1.8,1.8s0.8,1.8,1.8,1.8s1.8-0.8,1.8-1.8
		S402.4,176.1,401.4,176.1z M282.8,15.7c2.6,0,4.7-2.1,4.7-4.7s-2.1-4.7-4.7-4.7c-2.6,0-4.7,2.1-4.7,4.7S280.2,15.7,282.8,15.7z
		M190.3,40.5c2.6,0,4.7-2.1,4.7-4.7c0-2.6-2.2-4.7-4.7-4.7c-2.6,0-4.7,2.1-4.7,4.7C185.6,38.4,187.7,40.5,190.3,40.5z M367.4,233.6
		c-1.6,0-2.9,1.3-2.9,2.9s1.3,2.9,2.9,2.9c1.6,0,2.9-1.3,2.9-2.9C370.3,235,369,233.7,367.4,233.6z M384.2,202.9
		c-2.5,0-4.4,2-4.4,4.4c0,2.5,2,4.4,4.4,4.4c2.5,0,4.4-2,4.4-4.4C388.6,204.9,386.7,203,384.2,202.9z M335.1,25.1
		c1.6,0,2.8-1.3,2.8-2.8s-1.2-2.8-2.8-2.8s-2.8,1.3-2.8,2.8C332.3,23.9,333.5,25.1,335.1,25.1z M321.2,15.6c0.9,0,1.7-0.7,1.7-1.7
		s-0.8-1.7-1.7-1.7c-0.9,0-1.7,0.8-1.7,1.7C319.5,14.8,320.2,15.6,321.2,15.6z M312.2,35.2c4,0,7.2-3.2,7.2-7.2s-3.2-7.2-7.2-7.2
		S305,24,305,28S308.2,35.2,312.2,35.2z M371.1,66.7c2.6,0,4.7-2.1,4.7-4.7c0-2.6-2.1-4.7-4.7-4.7c-2.6,0-4.7,2.1-4.7,4.7
		C366.4,64.6,368.5,66.7,371.1,66.7z M364.7,39.9c0.5,0,0.9-0.4,0.9-0.9s-0.4-0.9-0.9-0.9s-0.9,0.4-0.9,0.9S364.2,39.9,364.7,39.9z
		M356.3,59.7c3.5,0,6.3-2.8,6.3-6.3s-2.8-6.3-6.3-6.3s-6.3,2.8-6.3,6.3S352.8,59.7,356.3,59.7z M297.7,25.9c3.5,0,6.3-2.8,6.3-6.3
		s-2.9-6.4-6.3-6.3c-3.5,0-6.3,2.8-6.3,6.3S294.2,25.9,297.7,25.9z M350,32.6c0.9,0,1.7-0.7,1.7-1.7s-0.8-1.8-1.7-1.7
		c-0.9,0-1.7,0.8-1.7,1.7C348.3,31.8,349,32.6,350,32.6z M334.5,45c0,4,3.2,7.2,7.2,7.2s7.2-3.2,7.2-7.2s-3.2-7.2-7.2-7.2
		S334.5,41,334.5,45z M370.7,85.1c0,3.7,3,6.6,6.6,6.6c3.7,0,6.6-3,6.6-6.6c0-3.7-3-6.6-6.6-6.6C373.6,78.5,370.7,81.5,370.7,85.1z
		M305,5.8c0.5,0,0.9-0.4,0.9-0.9S305.5,4,305,4s-0.9,0.4-0.9,0.9S304.5,5.8,305,5.8z M319.4,36.4c0,4.1,3.3,7.4,7.4,7.4
		c4.1,0,7.4-3.3,7.4-7.4c0-4-3.3-7.4-7.4-7.4C322.7,29,319.4,32.3,319.4,36.4z M392.9,188.6c-2.1,0-3.9,1.7-3.9,3.9
		c0,2.1,1.8,3.9,3.9,3.9c2.1,0,3.9-1.7,3.9-3.9S395,188.6,392.9,188.6z M141.2,90.2c2.2,0,4-1.8,4-4c0-2.2-1.8-3.9-4-4
		c-2.2,0-4,1.8-4,4C137.2,88.4,139,90.2,141.2,90.2z M158.4,60.7c2.1,0,3.9-1.7,3.9-3.9s-1.7-3.9-3.9-3.9c-2.1,0-3.9,1.7-3.9,3.9
		C154.5,58.9,156.2,60.7,158.4,60.7z M132.9,103.7c1.6,0,2.9-1.3,2.9-2.9c0-1.6-1.3-2.9-2.9-2.9s-2.9,1.3-2.9,2.9
		C130,102.4,131.3,103.7,132.9,103.7z M381.2,169.4c0,3.4,2.7,6.1,6.1,6.1c3.4,0,6.1-2.7,6.1-6.1c0-3.3-2.7-6.1-6.1-6.1
		C383.9,163.3,381.2,166,381.2,169.4z M321.8,244.2c-2.7,0-5,2.2-5,5c0,2.7,2.2,5,5,5c2.7,0,5-2.2,5-5
		C326.8,246.4,324.6,244.2,321.8,244.2z M130.7,136.6c-1.3,0-2.3,1-2.3,2.3c0,1.3,1,2.3,2.3,2.3s2.3-1,2.3-2.3
		C133,137.6,132,136.6,130.7,136.6z M166.9,44c1,0,1.8-0.8,1.8-1.8s-0.9-1.9-1.8-1.8c-1,0-1.8,0.8-1.8,1.8S165.9,44,166.9,44z
		M336.4,255.4c-1.3,0-2.3,1-2.3,2.3s1,2.3,2.3,2.3s2.3-1,2.3-2.3S337.7,255.4,336.4,255.4z M264.6-2l-1,1h1V-2z M266.7,4
		c1,0.6,2.3,0.2,2.9-0.8c0.6-1.1,0.3-2.4-0.8-3c-1-0.5-2.3-0.1-2.9,0.9C265.3,2.2,265.6,3.4,266.7,4z M198.4,22.8
		c0.9,0,1.7-0.8,1.7-1.7c0-0.9-0.8-1.7-1.7-1.7c-0.9,0-1.7,0.8-1.7,1.7C196.7,22,197.5,22.8,198.4,22.8z M389.6,111.9
		c1.9-3.5,0.7-8.1-2.7-9.9c-3.4-1.9-7.8-0.6-9.8,2.8c-2,3.5-0.8,8,2.6,9.9C383.1,116.6,387.7,115.3,389.6,111.9z M403.2,138.2
		c-1,0-1.7,0.8-1.7,1.7c0,0.9,0.8,1.7,1.7,1.7s1.7-0.8,1.7-1.7C404.9,139,404.1,138.2,403.2,138.2z M178.6,56
		c2.9,1.6,6.7,0.5,8.3-2.4c1.6-3,0.6-6.8-2.3-8.3c-2.9-1.6-6.6-0.5-8.2,2.4C174.7,50.6,175.7,54.4,178.6,56z M177.1,58.2
		c3.5,1.9,5,6.3,3.5,10c1.9-2.7,5.1-4,8.3-3.7c-1.9-2.8-2.2-6.7-0.4-9.8c2.1-3.6,6.4-5.3,10.3-4.2c-2.6-2.7-3.4-7-1.5-10.5
		c2.4-4.1,7.6-5.6,11.7-3.4c3.3,1.8,4.9,5.7,4.2,9.3c1.9-1.9,4.5-2.8,7.1-2.6c-1.8-2.7-2-6.4-0.2-9.4c2.4-4.2,7.9-5.8,12.2-3.5
		c3.4,1.8,5.1,5.8,4.4,9.6c2-1.9,4.7-2.9,7.3-2.6c-2-2.7-2.4-6.6-0.6-9.7c2.4-4.2,7.8-5.7,12.1-3.4c3.2,1.7,4.9,5.3,4.6,8.8
		c2.2-1.8,5.1-2.5,7.9-2c-2.2-2.6-2.7-6.6-0.9-9.8c2.3-4,7.5-5.5,11.5-3.3c3.6,2,5.1,6.4,3.8,10.3c2.7-3.1,7.5-4,11.2-2
		c3.3,1.8,4.9,5.5,4.5,9.2c2.8-2.2,6.8-2.7,10.1-1c3.4,1.9,5.1,5.9,4.4,9.7c2.8-2.4,7-2.9,10.3-1.1c3.4,1.9,5,5.8,4.4,9.6
		c2.9-2.5,7-3.1,10.5-1.2c3.5,1.9,5.2,5.9,4.5,9.7c2.7-2.3,6.7-2.9,10-1.1c4.2,2.3,5.8,7.9,3.4,12.2c-1.8,3.4-5.7,5.1-9.4,4.5
		c1.9,2.1,2.7,4.9,2.4,7.7c2.4-2,5.8-2.6,8.8-1.6c-3-2.5-3.9-6.9-1.9-10.4c2.2-3.9,7.2-5.3,11.1-3.2c3.9,2.1,5.3,7.2,3.1,11.2
		c-1.9,3.4-6.1,5-9.8,3.8c2.6,2.1,3.8,5.6,3.1,8.9c2.6-2.4,6.5-3,9.8-1.2c4,2.2,5.5,7.5,3.2,11.7c-1.9,3.4-5.8,5-9.4,4.3
		c2.2,2.1,3.1,5.3,2.5,8.4c2.7-2.4,6.6-3,9.9-1.2c4.1,2.2,5.6,7.6,3.3,11.8c-1.8,3.3-5.5,4.9-9,4.4c2.4,2.8,2.9,7,1,10.4
		c-1.9,3.5-5.9,5.2-9.7,4.6c1.8,2.1,2.6,5.1,2,7.9c2.7-2.2,6.5-2.8,9.8-1.3c-3.4-2.4-4.5-7.1-2.4-10.8c2.2-3.9,7.2-5.3,11.1-3.2
		c3.9,2.1,5.3,7.2,3.1,11.2c-2.1,3.7-6.8,5.2-10.6,3.5c3.7,2.6,4.8,7.8,2.6,11.9c-1.8,3.2-5.3,4.9-8.8,4.7c1.7,2.4,2.1,5.7,0.9,8.5
		c2.5-3,6.8-3.9,10.3-2c3.9,2.1,5.3,7.2,3.1,11.2c-2.2,3.9-7.3,5.4-11.2,3.2c-3.5-2-5-6.4-3.5-10.1c-2.3,2.9-6.4,4.1-9.9,2.9
		c3.1,2.5,4.1,7.2,2.1,11c-2.3,4.1-7.7,5.6-11.8,3.3c-3.8-2.1-5.4-7.1-3.6-11c-2.5,3.5-7.5,4.6-11.3,2.5c-4.1-2.3-5.5-7.7-3.2-11.8
		c2-3.5,6.3-5.1,10.1-3.9c-2.5-2.1-3.6-5.4-3-8.5c-2.8,2.4-6.9,3-10.3,1.1c-3.7-2-5.3-6.5-4.1-10.5c-2.6,2.8-7,3.5-10.4,1.6
		c-4-2.2-5.5-7.6-3.1-11.7c1.8-3.2,5.4-4.8,8.9-4.2c-1.8-2.1-2.6-5-2.1-7.7c-2.2,1.8-5.2,2.5-8,1.8c2.4,2.6,3,6.7,1.1,10
		c-2.3,4.1-7.6,5.6-11.7,3.3c-3.8-2.1-5.3-6.9-3.5-10.8c-2.5,3.4-7.3,4.5-11.1,2.3h0c-3.8-2.1-5.3-6.9-3.5-10.8
		c-2.6,3.4-7.4,4.5-11.3,2.4h0c-3.3-1.9-4.9-5.8-4.2-9.5c-2.7,2.5-6.9,3.1-10.2,1.3c-3.6-2.1-5.2-6.6-3.9-10.5
		c-2.7,2.9-7.2,3.7-10.7,1.8c-4.1-2.3-5.6-7.8-3.2-12c1.8-3.2,5.4-4.7,8.8-4.3c-1.7-2.2-2.4-5.1-1.9-7.9c-2.1,2-5.1,2.8-8,2.3
		c2.3,2.6,2.8,6.6,1,9.9c-2.2,4-7.6,5.6-11.6,3.3c-3.6-2-5.1-6.6-3.6-10.5c-2.6,3.7-7.8,4.9-11.8,2.7c-3.4-1.9-5-6.1-4.2-9.8
		c-2.5,2.1-6,2.8-9.1,1.7c2.9,2.4,3.8,6.8,1.9,10.3c-2.2,3.9-7.3,5.4-11.2,3.2c-3.8-2.1-5.2-7.3-2.9-11.3c1.9-3.4,6.1-4.9,9.8-3.6
		c-2.6-2.1-3.8-5.5-3.1-8.8c-2.4,2.1-5.7,2.8-8.7,1.9c2.9,2.6,3.7,7,1.7,10.5c-2.3,4.1-7.5,5.6-11.6,3.3c-4-2.3-5.5-7.6-3.2-11.6
		c2-3.5,6.2-5.1,9.9-4c-2.8-2.5-3.8-6.7-2.2-10.4c-2.4,3.1-6.8,4.1-10.3,2.2c-3.8-2.1-5.1-7.2-2.9-11.1
		C168.4,57.5,173.3,56.1,177.1,58.2z M218.8,82.1c-1.8-2.2-2.5-5.2-1.9-8c-1.9,1.8-4.6,2.7-7.2,2.4c1.5,2.1,2.1,4.9,1.5,7.6
		C213.3,82.4,216.1,81.6,218.8,82.1z M233.8,90.8c-1.9-2.1-2.7-5.1-2.2-7.9c-2.1,1.8-5,2.6-7.7,2.1c2,2.5,2.6,6,1.4,9.2
		C227.2,91.5,230.6,90.2,233.8,90.8z M241.7,75.6c-1.5-1.9-2.2-4.4-2-6.8c-2,1.4-4.4,2-6.9,1.7c1.5,2,2.2,4.7,1.7,7.3
		C236.4,76.1,239.1,75.3,241.7,75.6z M345.4,90.6c-1.7,1.4-3.9,2.2-6.1,2.3c0.9,1.9,1.2,4.2,0.8,6.3c1.8-1.6,4.3-2.5,6.7-2.4
		C345.6,95,345.1,92.8,345.4,90.6z M343.6,160.3c2-1.7,4.6-2.5,7.2-2.1c-1.5-1.9-2.1-4.4-1.8-6.9c-2,1.5-4.5,2.3-7,1.9
		C343.4,155.3,344,157.9,343.6,160.3z M322.9,128.5c1.9-1.5,4.3-2.3,6.7-2.1c-1.4-1.9-2.1-4.4-1.8-6.8c-1.8,1.3-4.1,2-6.4,1.8
		C322.8,123.4,323.4,126,322.9,128.5z M270.9,92.7c-1.5-1.9-2.2-4.4-2-6.8c-2,1.3-4.4,1.8-6.8,1.5c1.7,2,2.3,4.8,1.9,7.4
		C265.9,93.2,268.4,92.4,270.9,92.7z M285.4,100.8c-1.4-1.8-2-4.2-1.8-6.5c-1.9,1.4-4.4,2-6.7,1.7c1.5,2,2.1,4.5,1.7,7
		C280.4,101.4,282.9,100.6,285.4,100.8z M285.7,81.2c1.3,1.8,1.9,4,1.7,6.3c1.9-1.3,4.2-2,6.5-1.7c-1.4-1.9-2-4.3-1.7-6.6
		C290.5,80.6,288.1,81.3,285.7,81.2z M300.3,109.5c-1.5-1.9-2.2-4.4-2-6.9c-1.8,1.3-4.1,2-6.4,1.8c1.5,2,2.1,4.7,1.6,7.3
		C295.4,110.1,297.8,109.3,300.3,109.5z M309,94.3c-1.4-2.1-2-4.8-1.4-7.4c-1.9,1.8-4.6,2.7-7.2,2.4c1.4,1.9,2,4.2,1.8,6.6
		C304.1,94.5,306.6,93.9,309,94.3z M330,106.6c1.3,1.9,1.9,4.2,1.6,6.5c1.9-1.4,4.3-2,6.6-1.7c-1.3-2.1-1.7-4.6-1.2-7.1
		C335.1,106,332.5,106.8,330,106.6z M315.3,98.2c1.3,1.9,1.8,4.3,1.5,6.6c1.8-1.4,4.2-2.1,6.5-1.9c-1.2-1.7-1.8-3.9-1.7-6
		C319.7,98,317.4,98.5,315.3,98.2z M336,129.9c1.4,1.9,2.1,4.4,1.8,6.9c2-1.5,4.5-2.1,6.9-1.8c-1.6-1.9-2.3-4.5-2-7
		C340.8,129.4,338.4,130.1,336,129.9z M359.8,143.6c-1.8-2-2.6-4.8-2.1-7.5c-2,1.7-4.7,2.4-7.2,2.1c1.6,2,2.3,4.6,1.9,7.2
		C354.5,143.8,357.2,143.1,359.8,143.6z M352.3,119.6c-1-1.6-1.4-3.5-1.3-5.3c-1.8,1.1-4,1.6-6.1,1.3c1.1,1.8,1.5,3.9,1.3,5.9
		C348,120.2,350.2,119.5,352.3,119.6z M324.8,84c0.9,1.6,1.3,3.4,1.2,5.2c1.5-0.9,3.1-1.4,4.8-1.4c-0.8-1.7-1.2-3.6-1-5.4
		C328.4,83.4,326.6,83.9,324.8,84z M309.1,75.3c1.2,2,1.7,4.4,1.2,6.7c1.8-1.7,4.2-2.6,6.7-2.6c-1.1-1.9-1.5-4.1-1.1-6.3
		C314,74.6,311.5,75.4,309.1,75.3z M293.9,66.5c1.4,1.9,2,4.3,1.7,6.7c1.8-1.5,4-2.2,6.3-2.1c-1.1-1.7-1.7-3.8-1.6-5.9
		C298.4,66.3,296.1,66.8,293.9,66.5z M279.3,58.1c1.4,1.9,2,4.3,1.7,6.8c2-1.5,4.5-2.2,7-1.8c-1.4-1.9-2.1-4.2-2-6.6
		C284,57.7,281.6,58.4,279.3,58.1z M271.6,72.8c1.2,1.8,1.7,4,1.5,6.1c1.8-1.2,3.9-1.7,6.1-1.5c-1.3-1.9-1.9-4.3-1.6-6.6
		C275.8,72.2,273.7,72.9,271.6,72.8z M256.7,64.3c1.2,1.8,1.8,4,1.5,6.2c1.8-1.3,3.9-1.9,6.1-1.8c-1.2-1.9-1.7-4.3-1.3-6.6
		C261.2,63.6,259,64.4,256.7,64.3z M247.5,79c1.6,2.1,2.2,4.9,1.6,7.6c2-1.8,4.8-2.7,7.5-2.3c-1.6-1.9-2.4-4.5-2.1-7
		C252.5,78.6,250,79.3,247.5,79z M263,107.8c-1.8-2.1-2.6-4.9-2.1-7.7c-2,1.6-4.6,2.4-7.1,2c1.8,2.3,2.4,5.5,1.4,8.4
		C257.2,108.4,260.1,107.4,263,107.8z M277.4,116c-1.6-2-2.4-4.8-1.9-7.4c-2,1.7-4.7,2.4-7.2,2c1.8,2.1,2.5,4.9,1.9,7.6
		C272,116.4,274.8,115.6,277.4,116z M292.3,124.7c-1.7-2.1-2.5-4.9-2-7.6c-2.1,1.7-4.8,2.5-7.5,2c1.9,2.5,2.4,5.9,1.1,8.9
		C285.9,125.4,289.2,124.2,292.3,124.7z M307.2,133.3c-1.8-1.9-2.7-4.5-2.5-7.1c-2.1,1.5-4.7,2.1-7.3,1.6c1.9,2.4,2.4,5.8,1.1,8.7
		C300.6,133.8,304,132.6,307.2,133.3z M314.9,117.6c-1.3-1.9-1.9-4.3-1.6-6.7c-1.9,1.5-4.3,2.2-6.6,2c1.4,1.8,2.1,4.1,1.9,6.4
		C310.4,118,312.6,117.4,314.9,117.6z M335.9,149.8c-1.4-1.9-2.1-4.4-1.7-6.8c-2.1,1.6-4.8,2.2-7.4,1.7c1.7,2.2,2.3,5.1,1.5,7.9
		C330.3,150.5,333.1,149.5,335.9,149.8z M358.7,182.5c-2.7-2.1-3.9-5.7-3.1-9c-2.3,2.3-5.8,3.1-9,2.1c2.8,2.4,3.7,6.6,2.1,10.2
		C351,182.7,355.1,181.3,358.7,182.5z M365.1,166.6c-1.4-2-1.9-4.6-1.4-7.1c-2,1.7-4.6,2.4-7.2,2.1c1.6,2.1,2.2,4.9,1.6,7.6
		C359.9,167.3,362.5,166.4,365.1,166.6z M368.3,128.5c-1.6-1.9-2.2-4.5-1.8-7c-1.8,1.7-4.2,2.6-6.7,2.5c1.1,1.9,1.6,4.2,1.2,6.4
		C363,128.7,365.7,128,368.3,128.5z M353.9,100.7c1.2,1.8,1.8,3.9,1.6,6.1c2.1-1.2,4.6-1.6,7-1c-1.9-1.9-2.7-4.8-2.2-7.6
		C358.6,99.9,356.3,100.7,353.9,100.7z M332.1,69c1.4,1.9,2.1,4.2,1.8,6.6c2.1-1.5,4.8-2,7.4-1.5c-1.7-2-2.5-4.7-2.1-7.3
		C337.2,68.5,334.6,69.3,332.1,69z M318,60.4c1.3,2.1,1.7,4.6,1.2,7.1c1.9-1.5,4.3-2.2,6.7-1.9c-1.6-2.1-2.2-4.7-1.8-7.3
		C322.4,59.7,320.2,60.4,318,60.4z M303.7,51.8c1,1.7,1.4,3.6,1.3,5.6c1.7-1,3.6-1.5,5.5-1.4c-1.1-1.9-1.4-4.2-1-6.4
		C307.8,51,305.8,51.8,303.7,51.8z M288.3,43.6c1.1,1.6,1.6,3.6,1.6,5.6c1.7-1.2,3.8-1.9,5.9-1.9c-0.9-1.7-1.3-3.7-1.1-5.7
		C292.9,43,290.6,43.7,288.3,43.6z M272.7,33.9c1.8,2,2.7,4.9,2.3,7.7c1.9-1.4,4.2-2.1,6.5-2c-1.6-2.4-1.9-5.6-0.8-8.4
		C278.6,33.4,275.6,34.4,272.7,33.9z M264.6,49.7c1.4,2,2,4.5,1.6,7c2-1.7,4.6-2.4,7.1-2.1c-1.5-1.9-2.1-4.4-1.8-6.8
		C269.5,49.3,267,50,264.6,49.7z M250.3,41c1.4,1.9,2,4.3,1.7,6.7c1.8-1.3,4.1-1.9,6.3-1.6c-1.4-2-2-4.5-1.7-6.9
		C254.9,40.5,252.6,41.2,250.3,41z M241.8,55.7c1.3,1.8,1.9,4.1,1.7,6.4c1.7-1.2,3.9-1.9,6-1.7c-1.2-1.8-1.7-4.1-1.4-6.3
		C246.3,55.3,244,55.9,241.8,55.7z M227,47.4c1.3,1.9,1.8,4.2,1.4,6.5c2-1.6,4.5-2.3,7-2c-1.4-2-2-4.6-1.5-7.1
		C232.1,46.7,229.6,47.6,227,47.4z M217.7,61.7c1.8,2.2,2.5,5.2,1.8,8c2-1.9,4.8-2.8,7.5-2.5c-1.6-2.1-2.3-4.7-2-7.3
		C223,61.5,220.3,62.2,217.7,61.7z M202.5,52.7c2.1,2.1,3,5.1,2.6,8c2.1-1.7,4.8-2.5,7.5-2c-1.8-2.2-2.5-5.2-1.9-8.1
		C208.4,52.6,205.3,53.4,202.5,52.7z M195.1,68.3c1.4,2,1.9,4.6,1.4,7c1.9-1.7,4.5-2.5,7.1-2.2c-1.4-2-2-4.5-1.6-7
		C200.1,67.7,197.6,68.5,195.1,68.3z M363.9,195.2c-2,3.6-0.8,8.2,2.7,10.2s8.1,0.7,10.1-2.9c2-3.6,0.7-8.2-2.8-10.1
		C370.4,190.5,365.9,191.8,363.9,195.2z M201.9,101.8c-2.2,3.7-0.8,8.6,2.9,10.7s8.6,0.7,10.7-3c2.1-3.8,0.7-8.7-3-10.7
		S204,98.1,201.9,101.8z M386.4,137.3c3.1,1.8,7.3,0.6,9-2.6c1.8-3.2,0.6-7.3-2.5-9c-3.1-1.7-7.1-0.5-8.9,2.6
		C382.2,131.4,383.3,135.6,386.4,137.3z M256.4,124.5c-3.5-1.9-8-0.6-10,2.8c-2.1,3.6-0.8,8.2,2.7,10.2s8.1,0.7,10.1-2.9
		C261.2,131,259.9,126.4,256.4,124.5z M241.7,116.1c-3.6-1.9-8.1-0.6-10.1,2.9s-0.7,8.2,2.8,10.2c3.6,2,8.2,0.7,10.2-2.9
		S245.3,118,241.7,116.1z M300.5,149.8c-3.6-2-8.3-0.7-10.3,2.9c-2.1,3.6-0.8,8.4,2.8,10.4c3.6,2,8.4,0.7,10.4-2.9
		C305.4,156.5,304.1,151.8,300.5,149.8z M270.8,132.9c-3.5-1.9-8-0.6-10,2.8c-2,3.6-0.8,8.3,2.7,10.2h0c3.5,2,8.1,0.7,10.1-2.9
		C275.6,139.4,274.3,134.8,270.8,132.9z M285.8,141.5c-3.5-1.9-8-0.6-10,2.8c-2,3.6-0.8,8.2,2.7,10.2h0c3.5,2,8.1,0.7,10.1-2.9
		C290.6,148,289.3,143.4,285.8,141.5z M333.2,177.3c2.1-3.8,0.7-8.8-3.1-10.9c-3.8-2.1-8.6-0.7-10.7,3c-2.2,3.9-0.9,8.9,2.9,11
		C326.1,182.5,331.1,181.1,333.2,177.3z M315.5,158.1c-3.8-2-8.6-0.7-10.7,3c-2.1,3.8-0.8,8.8,2.9,10.9c3.8,2.1,8.7,0.7,10.8-3.1
		C320.6,165.1,319.2,160.2,315.5,158.1z M158.2,76.5c-2,3.5-0.8,8.2,2.8,10.2c3.5,2,8.2,0.7,10.1-2.9c2-3.6,0.7-8.2-2.9-10.1
		C164.7,71.8,160.1,73.1,158.2,76.5z M147.6,75.4c2.1,1.2,4.8,0.4,5.9-1.7c1.2-2.1,0.4-4.8-1.7-5.9c-2.1-1.1-4.7-0.4-5.8,1.7
		C144.9,71.5,145.6,74.2,147.6,75.4z M227.1,107.3c-3.7-2-8.3-0.7-10.4,2.9c-2.2,3.7-0.9,8.5,2.8,10.6c3.7,2.1,8.5,0.7,10.5-3
		C232.1,114.1,230.7,109.3,227.1,107.3z"/>
  </g>
  <path class="logo-text" fill-rule="evenodd" clip-rule="evenodd" fill="#FEFEFE" d="M94.1 164.3c4.5-7.7 6.8-16.1 6.8-25.3 0-6.9-1.3-13.4-4-19.6-2.7-6.2-6.2-11.6-10.8-16.1-4.5-4.5-9.9-8.1-16.1-10.8-6.2-2.6-12.7-4-19.6-4-9.1 0-17.6 2.3-25.3 6.8-7.8 4.5-13.9 10.6-18.4 18.4C2.2 121.5 0 129.9 0 139c0 9.1 2.2 17.6 6.7 25.3 4.5 7.7 10.6 13.8 18.4 18.4 7.8 4.5 16.2 6.8 25.3 6.8 9.1 0 17.6-2.3 25.3-6.8 3.5-2 6.6-4.4 9.4-7.1v14h15.8v-15.8h-14c2.7-2.8 5.1-6 7.2-9.5zm-19.2-.7c-6.8 6.8-14.9 10.1-24.5 10.1s-17.8-3.4-24.5-10.1c-6.8-6.8-10.1-14.9-10.1-24.5s3.4-17.8 10.1-24.5c6.8-6.8 14.9-10.1 24.5-10.1s17.8 3.4 24.5 10.1c6.8 6.8 10.1 14.9 10.1 24.5.1 9.5-3.3 17.7-10.1 24.5zm177-44.7c0-7.7-2.7-14.2-8.2-19.7-5.4-5.4-12-8.2-19.7-8.2h-48v96h48.1c7.7 0 14.2-2.7 19.7-8.2 5.4-5.4 8.2-12 8.2-19.7 0-7.9-2.9-14.7-8.8-20.1 5.8-5.4 8.7-12.1 8.7-20.1zm-18.7 49.2c-2.5 2.5-5.4 3.7-8.9 3.7h-33v-25.2h33c3.5 0 6.4 1.2 8.9 3.7s3.7 5.4 3.7 8.9-1.3 6.4-3.7 8.9zm0-40.3c-2.5 2.5-5.4 3.7-8.9 3.7h-33v-25.2h33c3.5 0 6.4 1.2 8.9 3.7s3.7 5.4 3.7 8.9-1.3 6.4-3.7 8.9zm94.2-36.7h15.2V187h-15.2V91.1zm169 0v15.2h-31.5V187h-15.2v-80.7h-31.5V91.1h78.2zM106.2 220.9c-1.3 1.3-1.9 2.8-1.9 4.6s.6 3.3 1.9 4.6c1.3 1.3 2.8 1.9 4.6 1.9 1 0 2-.2 2.9-.7.9-.5 1.7-1.1 2.3-1.9l2.1 2.1c-.9 1.1-1.9 1.9-3.2 2.5-1.3.6-2.6.9-4 .9-1.7 0-3.3-.4-4.7-1.3-1.4-.8-2.6-2-3.4-3.4-.8-1.4-1.2-3-1.2-4.7 0-1.7.4-3.3 1.2-4.7.8-1.4 2-2.6 3.4-3.4 1.4-.8 3-1.3 4.7-1.3 1 0 1.9.1 2.8.4.9.3 1.7.7 2.5 1.2.7.5 1.4 1.1 2 1.8l-2.1 2.1c-.6-.8-1.3-1.5-2.3-1.9-.9-.5-1.9-.7-2.9-.7-1.9 0-3.5.7-4.7 1.9zm55-4.3c-.7 1.8-1.5 3.6-2.4 5.6-.8 2-1.8 4.2-2.8 6.6-1 2.4-1.8 4.3-2.4 5.6h3.1l1.8-4.3h8.4l1.8 4.3h3.1l-7.6-17.8h-3zm-1.5 10.6c.4-.9 1.4-3.3 3-7 .3.7.8 1.8 1.4 3.4.7 1.6 1.2 2.8 1.5 3.6h-5.9zm57.8-10.6h-8.9v17.8h2.8v-7.5h6.1c1 0 1.9-.2 2.7-.7.8-.5 1.5-1.2 1.9-2 .5-.8.6-1.7.6-2.7-.1-1.4-.6-2.5-1.6-3.5s-2.2-1.4-3.6-1.4zm1.7 6.8c-.5.5-1 .7-1.7.7h-6.1v-4.7h6.1c.6 0 1.2.2 1.7.7.5.5.7 1 .7 1.7 0 .6-.3 1.1-.7 1.6zm40.2-6.8h2.8v17.8h-2.8v-17.8zm39.5 0h14.6v2.8h-5.9v15h-2.8v-15h-5.9v-2.8zm58.9 0c-.7 1.8-1.5 3.6-2.4 5.6-.8 2-1.8 4.2-2.8 6.6-1 2.4-1.8 4.3-2.4 5.6h3.1l1.8-4.3h8.4l1.8 4.3h3.1l-7.6-17.8h-3zm-1.5 10.6c.4-.9 1.4-3.3 3-7 .3.7.8 1.8 1.4 3.4.7 1.6 1.2 2.8 1.5 3.6h-5.9zm51.7 4.4h10.2v2.8h-13v-17.8h2.8v15z"/>
</svg>